<mxfile host="app.diagrams.net" agent="Mozilla/5.0 (Windows NT 10.0; Win64; x64) AppleWebKit/537.36 (KHTML, like Gecko) Chrome/126.0.0.0 Safari/537.36" version="24.7.4" pages="2">
  <diagram name="aws-micro-service" id="KnkiWDD12H-smVFrOK2P">
    <mxGraphModel dx="1962" dy="965" grid="1" gridSize="10" guides="1" tooltips="1" connect="1" arrows="1" fold="1" page="1" pageScale="1" pageWidth="850" pageHeight="1100" math="0" shadow="0">
      <root>
        <mxCell id="0" />
        <mxCell id="1" parent="0" />
        <UserObject label="" id="q5vyzDshfGC3t1kQjIdC-1">
          <mxCell style="rounded=0;whiteSpace=wrap;html=1;strokeWidth=1;" parent="1" vertex="1">
            <mxGeometry x="-840" y="230" width="1230" height="1510" as="geometry" />
          </mxCell>
        </UserObject>
        <mxCell id="q5vyzDshfGC3t1kQjIdC-2" value="AWS" style="points=[[0,0],[0.25,0],[0.5,0],[0.75,0],[1,0],[1,0.25],[1,0.5],[1,0.75],[1,1],[0.75,1],[0.5,1],[0.25,1],[0,1],[0,0.75],[0,0.5],[0,0.25]];outlineConnect=0;html=1;whiteSpace=wrap;fontSize=12;fontStyle=1;container=1;pointerEvents=0;collapsible=0;recursiveResize=0;shape=mxgraph.aws4.group;grIcon=mxgraph.aws4.group_aws_cloud_alt;strokeColor=#666666;fillColor=#f5f5f5;verticalAlign=top;align=left;spacingLeft=30;fontColor=#333333;dashed=0;movable=1;resizable=1;rotatable=1;deletable=1;editable=1;locked=0;connectable=1;" parent="1" vertex="1">
          <mxGeometry x="-740" y="430" width="1020" height="1270" as="geometry" />
        </mxCell>
        <mxCell id="q5vyzDshfGC3t1kQjIdC-3" value="us-east-1 (N. VÃ­rginia)" style="sketch=0;outlineConnect=0;html=1;whiteSpace=wrap;fontSize=12;fontStyle=1;shape=mxgraph.aws4.group;grIcon=mxgraph.aws4.group_region;strokeColor=#000000;fillColor=#dae8fc;verticalAlign=top;align=left;spacingLeft=30;dashed=1;" parent="q5vyzDshfGC3t1kQjIdC-2" vertex="1">
          <mxGeometry x="60" y="40" width="860" height="1180" as="geometry" />
        </mxCell>
        <mxCell id="q5vyzDshfGC3t1kQjIdC-4" value="VPC" style="sketch=0;outlineConnect=0;html=1;whiteSpace=wrap;fontSize=12;fontStyle=1;shape=mxgraph.aws4.group;grIcon=mxgraph.aws4.group_vpc;verticalAlign=top;align=left;spacingLeft=30;dashed=0;fillColor=#f5f5f5;fontColor=#333333;strokeColor=#4b8131;" parent="q5vyzDshfGC3t1kQjIdC-2" vertex="1">
          <mxGeometry x="330" y="230" width="500" height="750" as="geometry" />
        </mxCell>
        <mxCell id="q5vyzDshfGC3t1kQjIdC-5" style="edgeStyle=orthogonalEdgeStyle;rounded=0;orthogonalLoop=1;jettySize=auto;html=1;exitX=0.463;exitY=1.002;exitDx=0;exitDy=0;exitPerimeter=0;fillColor=#ffe6cc;strokeColor=#d79b00;dashed=1;dashPattern=8 8;" parent="q5vyzDshfGC3t1kQjIdC-2" source="q5vyzDshfGC3t1kQjIdC-7" target="q5vyzDshfGC3t1kQjIdC-14" edge="1">
          <mxGeometry relative="1" as="geometry">
            <Array as="points">
              <mxPoint x="558" y="970" />
              <mxPoint x="419" y="970" />
            </Array>
          </mxGeometry>
        </mxCell>
        <mxCell id="q5vyzDshfGC3t1kQjIdC-6" style="edgeStyle=orthogonalEdgeStyle;rounded=0;orthogonalLoop=1;jettySize=auto;html=1;exitX=0.463;exitY=1.001;exitDx=0;exitDy=0;exitPerimeter=0;fillColor=#ffe6cc;strokeColor=#d79b00;dashed=1;dashPattern=8 8;" parent="q5vyzDshfGC3t1kQjIdC-2" source="q5vyzDshfGC3t1kQjIdC-7" target="q5vyzDshfGC3t1kQjIdC-10" edge="1">
          <mxGeometry relative="1" as="geometry">
            <Array as="points">
              <mxPoint x="558" y="970" />
              <mxPoint x="701" y="970" />
            </Array>
          </mxGeometry>
        </mxCell>
        <mxCell id="q5vyzDshfGC3t1kQjIdC-7" value="Availability Zone A" style="fillColor=none;strokeColor=#147EBA;dashed=1;verticalAlign=top;fontStyle=1;fontColor=#147EBA;whiteSpace=wrap;html=1;strokeWidth=2;" parent="q5vyzDshfGC3t1kQjIdC-2" vertex="1">
          <mxGeometry x="350" y="390" width="450" height="560" as="geometry" />
        </mxCell>
        <mxCell id="q5vyzDshfGC3t1kQjIdC-8" style="edgeStyle=orthogonalEdgeStyle;rounded=0;orthogonalLoop=1;jettySize=auto;html=1;" parent="q5vyzDshfGC3t1kQjIdC-2" source="q5vyzDshfGC3t1kQjIdC-9" target="q5vyzDshfGC3t1kQjIdC-13" edge="1">
          <mxGeometry relative="1" as="geometry" />
        </mxCell>
        <mxCell id="q5vyzDshfGC3t1kQjIdC-9" value="Amazon Cognito&lt;br&gt;(tech-medicos-lambda-auth)" style="sketch=0;points=[[0,0,0],[0.25,0,0],[0.5,0,0],[0.75,0,0],[1,0,0],[0,1,0],[0.25,1,0],[0.5,1,0],[0.75,1,0],[1,1,0],[0,0.25,0],[0,0.5,0],[0,0.75,0],[1,0.25,0],[1,0.5,0],[1,0.75,0]];outlineConnect=0;fontColor=#232F3E;fillColor=#DD344C;strokeColor=#ffffff;dashed=0;verticalLabelPosition=bottom;verticalAlign=top;align=center;html=1;fontSize=12;fontStyle=1;aspect=fixed;shape=mxgraph.aws4.resourceIcon;resIcon=mxgraph.aws4.cognito;" parent="q5vyzDshfGC3t1kQjIdC-2" vertex="1">
          <mxGeometry x="206" y="410" width="78" height="78" as="geometry" />
        </mxCell>
        <mxCell id="q5vyzDshfGC3t1kQjIdC-10" value="Cloud Watch&lt;div&gt;(tech-medicos)&lt;/div&gt;" style="sketch=0;points=[[0,0,0],[0.25,0,0],[0.5,0,0],[0.75,0,0],[1,0,0],[0,1,0],[0.25,1,0],[0.5,1,0],[0.75,1,0],[1,1,0],[0,0.25,0],[0,0.5,0],[0,0.75,0],[1,0.25,0],[1,0.5,0],[1,0.75,0]];points=[[0,0,0],[0.25,0,0],[0.5,0,0],[0.75,0,0],[1,0,0],[0,1,0],[0.25,1,0],[0.5,1,0],[0.75,1,0],[1,1,0],[0,0.25,0],[0,0.5,0],[0,0.75,0],[1,0.25,0],[1,0.5,0],[1,0.75,0]];outlineConnect=0;fontColor=#232F3E;fillColor=#E7157B;strokeColor=#ffffff;dashed=0;verticalLabelPosition=bottom;verticalAlign=top;align=center;html=1;fontSize=12;fontStyle=1;aspect=fixed;shape=mxgraph.aws4.resourceIcon;resIcon=mxgraph.aws4.cloudwatch_2;" parent="q5vyzDshfGC3t1kQjIdC-2" vertex="1">
          <mxGeometry x="662" y="1010" width="78" height="78" as="geometry" />
        </mxCell>
        <mxCell id="q5vyzDshfGC3t1kQjIdC-11" style="edgeStyle=orthogonalEdgeStyle;rounded=0;orthogonalLoop=1;jettySize=auto;html=1;" parent="q5vyzDshfGC3t1kQjIdC-2" target="q5vyzDshfGC3t1kQjIdC-16" edge="1">
          <mxGeometry relative="1" as="geometry">
            <mxPoint x="575" y="220" as="sourcePoint" />
          </mxGeometry>
        </mxCell>
        <mxCell id="q5vyzDshfGC3t1kQjIdC-12" value="Amazon API Gateway&lt;br&gt;(tech-medicos-api)" style="sketch=0;points=[[0,0,0],[0.25,0,0],[0.5,0,0],[0.75,0,0],[1,0,0],[0,1,0],[0.25,1,0],[0.5,1,0],[0.75,1,0],[1,1,0],[0,0.25,0],[0,0.5,0],[0,0.75,0],[1,0.25,0],[1,0.5,0],[1,0.75,0]];outlineConnect=0;fontColor=#232F3E;fillColor=#8C4FFF;strokeColor=#ffffff;dashed=0;verticalLabelPosition=bottom;verticalAlign=top;align=center;html=1;fontSize=12;fontStyle=1;aspect=fixed;shape=mxgraph.aws4.resourceIcon;resIcon=mxgraph.aws4.api_gateway;" parent="q5vyzDshfGC3t1kQjIdC-2" vertex="1">
          <mxGeometry x="536" y="103" width="78" height="78" as="geometry" />
        </mxCell>
        <mxCell id="q5vyzDshfGC3t1kQjIdC-13" value="AWS&amp;nbsp;Secrets Manager&lt;br&gt;(tech-medicos-lambda-auth)" style="sketch=0;points=[[0,0,0],[0.25,0,0],[0.5,0,0],[0.75,0,0],[1,0,0],[0,1,0],[0.25,1,0],[0.5,1,0],[0.75,1,0],[1,1,0],[0,0.25,0],[0,0.5,0],[0,0.75,0],[1,0.25,0],[1,0.5,0],[1,0.75,0]];outlineConnect=0;fontColor=#232F3E;fillColor=#DD344C;strokeColor=#ffffff;dashed=0;verticalLabelPosition=bottom;verticalAlign=top;align=center;html=1;fontSize=12;fontStyle=1;aspect=fixed;shape=mxgraph.aws4.resourceIcon;resIcon=mxgraph.aws4.secrets_manager;" parent="q5vyzDshfGC3t1kQjIdC-2" vertex="1">
          <mxGeometry x="206" y="570" width="78" height="78" as="geometry" />
        </mxCell>
        <mxCell id="q5vyzDshfGC3t1kQjIdC-14" value="S3&lt;br&gt;(techmedicos-terraform)" style="sketch=0;points=[[0,0,0],[0.25,0,0],[0.5,0,0],[0.75,0,0],[1,0,0],[0,1,0],[0.25,1,0],[0.5,1,0],[0.75,1,0],[1,1,0],[0,0.25,0],[0,0.5,0],[0,0.75,0],[1,0.25,0],[1,0.5,0],[1,0.75,0]];outlineConnect=0;fontColor=#232F3E;fillColor=#7AA116;strokeColor=#ffffff;dashed=0;verticalLabelPosition=bottom;verticalAlign=top;align=center;html=1;fontSize=12;fontStyle=1;aspect=fixed;shape=mxgraph.aws4.resourceIcon;resIcon=mxgraph.aws4.s3;" parent="q5vyzDshfGC3t1kQjIdC-2" vertex="1">
          <mxGeometry x="379.9999999999999" y="1010" width="78" height="78" as="geometry" />
        </mxCell>
        <mxCell id="q5vyzDshfGC3t1kQjIdC-15" style="edgeStyle=orthogonalEdgeStyle;rounded=0;orthogonalLoop=1;jettySize=auto;html=1;" parent="q5vyzDshfGC3t1kQjIdC-2" source="q5vyzDshfGC3t1kQjIdC-16" target="q5vyzDshfGC3t1kQjIdC-7" edge="1">
          <mxGeometry relative="1" as="geometry" />
        </mxCell>
        <mxCell id="q5vyzDshfGC3t1kQjIdC-16" value="VPC Link&lt;br&gt;(tech-medicos-api)" style="sketch=0;points=[[0,0,0],[0.25,0,0],[0.5,0,0],[0.75,0,0],[1,0,0],[0,1,0],[0.25,1,0],[0.5,1,0],[0.75,1,0],[1,1,0],[0,0.25,0],[0,0.5,0],[0,0.75,0],[1,0.25,0],[1,0.5,0],[1,0.75,0]];outlineConnect=0;fontColor=#232F3E;fillColor=#8C4FFF;strokeColor=#ffffff;dashed=0;verticalLabelPosition=bottom;verticalAlign=top;align=center;html=1;fontSize=12;fontStyle=1;aspect=fixed;shape=mxgraph.aws4.resourceIcon;resIcon=mxgraph.aws4.vpc;" parent="q5vyzDshfGC3t1kQjIdC-2" vertex="1">
          <mxGeometry x="536" y="252" width="78" height="78" as="geometry" />
        </mxCell>
        <mxCell id="q5vyzDshfGC3t1kQjIdC-17" value="IAM Role &lt;br&gt;(LabRole)" style="sketch=0;points=[[0,0,0],[0.25,0,0],[0.5,0,0],[0.75,0,0],[1,0,0],[0,1,0],[0.25,1,0],[0.5,1,0],[0.75,1,0],[1,1,0],[0,0.25,0],[0,0.5,0],[0,0.75,0],[1,0.25,0],[1,0.5,0],[1,0.75,0]];outlineConnect=0;fontColor=#232F3E;fillColor=#DD344C;strokeColor=#ffffff;dashed=0;verticalLabelPosition=bottom;verticalAlign=top;align=center;html=1;fontSize=12;fontStyle=1;aspect=fixed;shape=mxgraph.aws4.resourceIcon;resIcon=mxgraph.aws4.identity_and_access_management;" parent="q5vyzDshfGC3t1kQjIdC-2" vertex="1">
          <mxGeometry x="520" y="1010" width="78" height="78" as="geometry" />
        </mxCell>
        <mxCell id="q5vyzDshfGC3t1kQjIdC-18" value="&lt;font color=&quot;#0a454d&quot;&gt;Private subnet&lt;/font&gt;" style="points=[[0,0],[0.25,0],[0.5,0],[0.75,0],[1,0],[1,0.25],[1,0.5],[1,0.75],[1,1],[0.75,1],[0.5,1],[0.25,1],[0,1],[0,0.75],[0,0.5],[0,0.25]];outlineConnect=0;html=1;whiteSpace=wrap;fontSize=12;fontStyle=1;container=1;pointerEvents=0;collapsible=0;recursiveResize=0;shape=mxgraph.aws4.group;grIcon=mxgraph.aws4.group_security_group;grStroke=0;strokeColor=#6c8ebf;fillColor=#dae8fc;verticalAlign=top;align=left;spacingLeft=30;dashed=0;" parent="q5vyzDshfGC3t1kQjIdC-2" vertex="1">
          <mxGeometry x="370" y="590" width="400" height="337" as="geometry" />
        </mxCell>
        <mxCell id="q5vyzDshfGC3t1kQjIdC-19" value="&lt;font style=&quot;font-size: 11px;&quot;&gt;AWS&amp;nbsp;Secrets Manager&lt;br&gt;(tech-medicos-api)&lt;/font&gt;" style="sketch=0;points=[[0,0,0],[0.25,0,0],[0.5,0,0],[0.75,0,0],[1,0,0],[0,1,0],[0.25,1,0],[0.5,1,0],[0.75,1,0],[1,1,0],[0,0.25,0],[0,0.5,0],[0,0.75,0],[1,0.25,0],[1,0.5,0],[1,0.75,0]];outlineConnect=0;fontColor=#232F3E;fillColor=#DD344C;strokeColor=#ffffff;dashed=0;verticalLabelPosition=bottom;verticalAlign=top;align=center;html=1;fontSize=12;fontStyle=1;aspect=fixed;shape=mxgraph.aws4.resourceIcon;resIcon=mxgraph.aws4.secrets_manager;" parent="q5vyzDshfGC3t1kQjIdC-18" vertex="1">
          <mxGeometry x="40" y="183.75" width="68" height="68" as="geometry" />
        </mxCell>
        <mxCell id="q5vyzDshfGC3t1kQjIdC-20" style="edgeStyle=orthogonalEdgeStyle;rounded=0;orthogonalLoop=1;jettySize=auto;html=1;" parent="q5vyzDshfGC3t1kQjIdC-18" target="q5vyzDshfGC3t1kQjIdC-24" edge="1">
          <mxGeometry relative="1" as="geometry">
            <mxPoint x="200" y="140" as="sourcePoint" />
            <Array as="points">
              <mxPoint x="200" y="150" />
              <mxPoint x="325" y="150" />
            </Array>
          </mxGeometry>
        </mxCell>
        <mxCell id="q5vyzDshfGC3t1kQjIdC-21" style="edgeStyle=orthogonalEdgeStyle;rounded=0;orthogonalLoop=1;jettySize=auto;html=1;" parent="q5vyzDshfGC3t1kQjIdC-18" target="q5vyzDshfGC3t1kQjIdC-23" edge="1">
          <mxGeometry relative="1" as="geometry">
            <mxPoint x="200" y="140" as="sourcePoint" />
          </mxGeometry>
        </mxCell>
        <mxCell id="q5vyzDshfGC3t1kQjIdC-22" value="&lt;font style=&quot;font-size: 11px;&quot;&gt;AWS EKS&lt;br&gt;(techmedicos-api)&lt;/font&gt;" style="sketch=0;points=[[0,0,0],[0.25,0,0],[0.5,0,0],[0.75,0,0],[1,0,0],[0,1,0],[0.25,1,0],[0.5,1,0],[0.75,1,0],[1,1,0],[0,0.25,0],[0,0.5,0],[0,0.75,0],[1,0.25,0],[1,0.5,0],[1,0.75,0]];outlineConnect=0;fontColor=#232F3E;fillColor=#ED7100;strokeColor=#ffffff;dashed=0;verticalLabelPosition=bottom;verticalAlign=top;align=center;html=1;fontSize=12;fontStyle=1;aspect=fixed;shape=mxgraph.aws4.resourceIcon;resIcon=mxgraph.aws4.eks_cloud;" parent="q5vyzDshfGC3t1kQjIdC-18" vertex="1">
          <mxGeometry x="161" y="25.5" width="78" height="78" as="geometry" />
        </mxCell>
        <mxCell id="q5vyzDshfGC3t1kQjIdC-23" value="&lt;b style=&quot;font-size: 11px;&quot;&gt;Dynamo DB&lt;br&gt;(tech-medicos-api)&lt;/b&gt;" style="outlineConnect=0;dashed=0;verticalLabelPosition=bottom;verticalAlign=top;align=center;html=1;shape=mxgraph.aws3.dynamo_db;fillColor=#2E73B8;gradientColor=none;" parent="q5vyzDshfGC3t1kQjIdC-18" vertex="1">
          <mxGeometry x="169.5" y="180.75" width="61" height="71" as="geometry" />
        </mxCell>
        <mxCell id="q5vyzDshfGC3t1kQjIdC-24" value="&lt;font style=&quot;font-size: 11px;&quot;&gt;AWS EC2 &lt;br&gt;(tech-medicos-api)&lt;/font&gt;" style="sketch=0;points=[[0,0,0],[0.25,0,0],[0.5,0,0],[0.75,0,0],[1,0,0],[0,1,0],[0.25,1,0],[0.5,1,0],[0.75,1,0],[1,1,0],[0,0.25,0],[0,0.5,0],[0,0.75,0],[1,0.25,0],[1,0.5,0],[1,0.75,0]];outlineConnect=0;fontColor=#232F3E;fillColor=#ED7100;strokeColor=#ffffff;dashed=0;verticalLabelPosition=bottom;verticalAlign=top;align=center;html=1;fontSize=12;fontStyle=1;aspect=fixed;shape=mxgraph.aws4.resourceIcon;resIcon=mxgraph.aws4.ec2;" parent="q5vyzDshfGC3t1kQjIdC-18" vertex="1">
          <mxGeometry x="291" y="183.75" width="68" height="68" as="geometry" />
        </mxCell>
        <mxCell id="q5vyzDshfGC3t1kQjIdC-25" style="edgeStyle=orthogonalEdgeStyle;rounded=0;orthogonalLoop=1;jettySize=auto;html=1;entryX=0.5;entryY=0;entryDx=0;entryDy=0;entryPerimeter=0;" parent="q5vyzDshfGC3t1kQjIdC-18" target="q5vyzDshfGC3t1kQjIdC-19" edge="1">
          <mxGeometry relative="1" as="geometry">
            <mxPoint x="200" y="140" as="sourcePoint" />
            <Array as="points">
              <mxPoint x="200" y="150" />
              <mxPoint x="74" y="150" />
            </Array>
          </mxGeometry>
        </mxCell>
        <mxCell id="q5vyzDshfGC3t1kQjIdC-26" value="Public subnet" style="points=[[0,0],[0.25,0],[0.5,0],[0.75,0],[1,0],[1,0.25],[1,0.5],[1,0.75],[1,1],[0.75,1],[0.5,1],[0.25,1],[0,1],[0,0.75],[0,0.5],[0,0.25]];outlineConnect=0;gradientColor=none;html=1;whiteSpace=wrap;fontSize=12;fontStyle=1;container=1;pointerEvents=0;collapsible=0;recursiveResize=0;shape=mxgraph.aws4.group;grIcon=mxgraph.aws4.group_security_group;grStroke=0;strokeColor=#7AA116;fillColor=#c4f2c4;verticalAlign=top;align=left;spacingLeft=30;fontColor=#248814;dashed=0;" parent="q5vyzDshfGC3t1kQjIdC-2" vertex="1">
          <mxGeometry x="370" y="422" width="400" height="148" as="geometry" />
        </mxCell>
        <mxCell id="q5vyzDshfGC3t1kQjIdC-27" value="Application Load Balancer&lt;br&gt;(tech-medicos-api)" style="sketch=0;outlineConnect=0;fontColor=#232F3E;gradientColor=none;fillColor=#8C4FFF;strokeColor=none;dashed=0;verticalLabelPosition=bottom;verticalAlign=top;align=center;html=1;fontSize=12;fontStyle=1;aspect=fixed;pointerEvents=1;shape=mxgraph.aws4.application_load_balancer;" parent="q5vyzDshfGC3t1kQjIdC-26" vertex="1">
          <mxGeometry x="161" y="19.5" width="78" height="78" as="geometry" />
        </mxCell>
        <mxCell id="q5vyzDshfGC3t1kQjIdC-28" style="edgeStyle=orthogonalEdgeStyle;rounded=0;orthogonalLoop=1;jettySize=auto;html=1;" parent="q5vyzDshfGC3t1kQjIdC-2" target="q5vyzDshfGC3t1kQjIdC-33" edge="1">
          <mxGeometry relative="1" as="geometry">
            <mxPoint x="244" y="210" as="sourcePoint" />
          </mxGeometry>
        </mxCell>
        <mxCell id="q5vyzDshfGC3t1kQjIdC-29" value="Amazon API Gateway&lt;br&gt;(tech-medicos-lambda-auth)" style="sketch=0;points=[[0,0,0],[0.25,0,0],[0.5,0,0],[0.75,0,0],[1,0,0],[0,1,0],[0.25,1,0],[0.5,1,0],[0.75,1,0],[1,1,0],[0,0.25,0],[0,0.5,0],[0,0.75,0],[1,0.25,0],[1,0.5,0],[1,0.75,0]];outlineConnect=0;fontColor=#232F3E;fillColor=#8C4FFF;strokeColor=#ffffff;dashed=0;verticalLabelPosition=bottom;verticalAlign=top;align=center;html=1;fontSize=12;fontStyle=1;aspect=fixed;shape=mxgraph.aws4.resourceIcon;resIcon=mxgraph.aws4.api_gateway;" parent="q5vyzDshfGC3t1kQjIdC-2" vertex="1">
          <mxGeometry x="208" y="104" width="78" height="78" as="geometry" />
        </mxCell>
        <mxCell id="q5vyzDshfGC3t1kQjIdC-30" style="edgeStyle=orthogonalEdgeStyle;rounded=0;orthogonalLoop=1;jettySize=auto;html=1;" parent="q5vyzDshfGC3t1kQjIdC-2" source="q5vyzDshfGC3t1kQjIdC-33" target="q5vyzDshfGC3t1kQjIdC-9" edge="1">
          <mxGeometry relative="1" as="geometry" />
        </mxCell>
        <mxCell id="q5vyzDshfGC3t1kQjIdC-31" style="edgeStyle=orthogonalEdgeStyle;rounded=0;orthogonalLoop=1;jettySize=auto;html=1;fontStyle=1;fillColor=#ffe6cc;strokeColor=#d79b00;dashed=1;dashPattern=8 8;" parent="q5vyzDshfGC3t1kQjIdC-2" source="q5vyzDshfGC3t1kQjIdC-33" edge="1">
          <mxGeometry relative="1" as="geometry">
            <mxPoint x="419" y="1130" as="targetPoint" />
            <Array as="points">
              <mxPoint x="140" y="290" />
              <mxPoint x="140" y="1180" />
              <mxPoint x="419" y="1180" />
            </Array>
          </mxGeometry>
        </mxCell>
        <mxCell id="q5vyzDshfGC3t1kQjIdC-32" style="edgeStyle=orthogonalEdgeStyle;rounded=0;orthogonalLoop=1;jettySize=auto;html=1;fillColor=#ffe6cc;strokeColor=#d79b00;dashed=1;dashPattern=8 8;" parent="q5vyzDshfGC3t1kQjIdC-2" source="q5vyzDshfGC3t1kQjIdC-33" edge="1">
          <mxGeometry relative="1" as="geometry">
            <mxPoint x="701" y="1120" as="targetPoint" />
            <Array as="points">
              <mxPoint x="140" y="290" />
              <mxPoint x="140" y="1180" />
              <mxPoint x="701" y="1180" />
            </Array>
          </mxGeometry>
        </mxCell>
        <mxCell id="q5vyzDshfGC3t1kQjIdC-33" value="AWS Lambda &lt;br&gt;(tech-medicos-lambda-auth)" style="sketch=0;points=[[0,0,0],[0.25,0,0],[0.5,0,0],[0.75,0,0],[1,0,0],[0,1,0],[0.25,1,0],[0.5,1,0],[0.75,1,0],[1,1,0],[0,0.25,0],[0,0.5,0],[0,0.75,0],[1,0.25,0],[1,0.5,0],[1,0.75,0]];outlineConnect=0;fontColor=#232F3E;fillColor=#ED7100;strokeColor=#ffffff;dashed=0;verticalLabelPosition=bottom;verticalAlign=top;align=center;html=1;fontSize=12;fontStyle=1;aspect=fixed;shape=mxgraph.aws4.resourceIcon;resIcon=mxgraph.aws4.lambda;" parent="q5vyzDshfGC3t1kQjIdC-2" vertex="1">
          <mxGeometry x="204" y="250" width="80" height="80" as="geometry" />
        </mxCell>
        <mxCell id="q5vyzDshfGC3t1kQjIdC-34" style="edgeStyle=orthogonalEdgeStyle;rounded=0;orthogonalLoop=1;jettySize=auto;html=1;exitX=0.463;exitY=1.001;exitDx=0;exitDy=0;exitPerimeter=0;dashed=1;dashPattern=8 8;fillColor=#ffe6cc;strokeColor=#d79b00;" parent="q5vyzDshfGC3t1kQjIdC-2" source="q5vyzDshfGC3t1kQjIdC-7" target="q5vyzDshfGC3t1kQjIdC-17" edge="1">
          <mxGeometry relative="1" as="geometry" />
        </mxCell>
        <mxCell id="q5vyzDshfGC3t1kQjIdC-35" style="edgeStyle=orthogonalEdgeStyle;rounded=0;orthogonalLoop=1;jettySize=auto;html=1;fillColor=#ffe6cc;strokeColor=#d79b00;dashed=1;dashPattern=8 8;" parent="q5vyzDshfGC3t1kQjIdC-2" source="q5vyzDshfGC3t1kQjIdC-33" edge="1">
          <mxGeometry relative="1" as="geometry">
            <mxPoint x="559" y="1130" as="targetPoint" />
            <Array as="points">
              <mxPoint x="140" y="290" />
              <mxPoint x="140" y="1180" />
              <mxPoint x="559" y="1180" />
            </Array>
          </mxGeometry>
        </mxCell>
        <mxCell id="q5vyzDshfGC3t1kQjIdC-43" value="" style="edgeStyle=orthogonalEdgeStyle;rounded=0;orthogonalLoop=1;jettySize=auto;html=1;" parent="q5vyzDshfGC3t1kQjIdC-2" target="q5vyzDshfGC3t1kQjIdC-22" edge="1">
          <mxGeometry relative="1" as="geometry">
            <mxPoint x="570" y="550" as="sourcePoint" />
          </mxGeometry>
        </mxCell>
        <mxCell id="q5vyzDshfGC3t1kQjIdC-36" style="edgeStyle=orthogonalEdgeStyle;rounded=0;orthogonalLoop=1;jettySize=auto;html=1;" parent="1" source="q5vyzDshfGC3t1kQjIdC-37" target="q5vyzDshfGC3t1kQjIdC-39" edge="1">
          <mxGeometry relative="1" as="geometry" />
        </mxCell>
        <mxCell id="q5vyzDshfGC3t1kQjIdC-37" value="UsuÃ¡rio" style="sketch=0;outlineConnect=0;fontColor=#232F3E;gradientColor=none;strokeColor=#232F3E;fillColor=#ffffff;dashed=0;verticalLabelPosition=bottom;verticalAlign=top;align=center;html=1;fontSize=12;fontStyle=1;aspect=fixed;shape=mxgraph.aws4.resourceIcon;resIcon=mxgraph.aws4.users;" parent="1" vertex="1">
          <mxGeometry x="-750" y="280" width="90" height="90" as="geometry" />
        </mxCell>
        <mxCell id="q5vyzDshfGC3t1kQjIdC-38" style="edgeStyle=orthogonalEdgeStyle;rounded=0;orthogonalLoop=1;jettySize=auto;html=1;" parent="1" source="q5vyzDshfGC3t1kQjIdC-39" target="q5vyzDshfGC3t1kQjIdC-41" edge="1">
          <mxGeometry relative="1" as="geometry" />
        </mxCell>
        <mxCell id="q5vyzDshfGC3t1kQjIdC-39" value="Dispositivos" style="shape=image;verticalLabelPosition=bottom;labelBackgroundColor=default;verticalAlign=top;aspect=fixed;imageAspect=0;image=data:image/png,iVBORw0KGgoAAAANSUhEUgAAAMgAAADICAYAAACtWK6eAAAABHNCSVQICAgIfAhkiAAAAAlwSFlzAAALEwAACxMBAJqcGAAAB/VJREFUeJzt3WusHGUdx/Fvz7GttCK0KJUmxmgD1ShHFEWsUQQVCWnTEj0qhqRGEV8YvCR4jwRvgURDsAavvNCYcLPeEoRigppo8IJECYhYA7bGWBSkoVSF3o4vnnOC7dn9z15m53l2zveTTJrs7Mz8O2d/u8/MPDMPSJIkSZIkSZIkSZIkSZIkSZIkSZIkSZIkSZIkSZIkSZIkSZIkSZIkSZIkSZIkSZKk2iwaYJk1wDRwGnACsLjWijRqh4A9wL3ArcA24GDWilpiNXADaQfPOLVmegA4Dw1lHfAQ+f+YTqObtgAT6DCTPbznxcBPgBUjrkV5vQI4ltTk0qyqgCwFbiM1r9R+pwN3AttzF1KKqp/UdwNrmyhExfgCg528aaWqgLynkSpUkrXAGbmLKMVTgnmrgRdVLL8LeKS+ctSACeAk4ub1G4GfNVLNGDuT+KzHt/Gsx7haR7r20e1v+/18pZUl+oAfXbHsjaRrIho/twM7g/nHNFVI6aKAVP06zNRZiBoXfbnZMpjljpACBkQKGBApYECkgAGRAgZEChgQKWBApIABkQIGRAoYEClgQKSAAZECBkQKGBApYECkgAGRAgZEChgQKRA99kfttoH05MxO9jZZSMkMyML1x9wFjAObWFLAgEgBAyIFDIgU8CC9vZYCLyWNI9npi7DTkzG7PS2z23u7DZPQ6fV+3rsPuI/CxynZRPzw6vX5SlNgGXAF8Cj5h3UbdroH2Fjv7qmPARk/xwN3kf+DXfd0eZ07qR8eg7THImArMJW7kBH4KHBhjg0bkPaYBl6du4gRuoLUfGyUAWmPC3IXMGLHAec2vVED0h5tbFod6ZSmN+hp3vZ4WsX8XaTTpyVbATw9mL+8qULmGJD2u590fPK73IX0YBK4CPgSnQcZbXx4aptY7Xc+4xEOSAOLfgW4OnchcwxIu+0G7shdxABuzl3AHAPSbqUfc3TzRO4C5hgQKWBApIABkQIGRAoYEClgQKSAAZECdjVRiQ6SLnIeOuL1xh9oZ0BUop8DK3MXATaxpJABkQIGRAoYEClgQKSAZ7FUmpXAecDJwFNrXvdB4G/ATcDdw67MB8eNl4eZ/zd6MGtF/buYdK2jiYfR3QgcW1WQTSyV4jJgC809mGEa+GnV9gyISnAacGmG7Z4CfCZ6gwFRCd5HhieWzLqI4ImNBkQleE3GbS8HXtJtpgFRCVZk3v5x3WYYEJUgV/NqTtccGBApYECkgAGRAnY1UaleD/yh5nUuIz3Mu2cGRKX6F/V3lakaImIem1hSwIBIgWECkvvctTRywwTkTRgStdwwB+mbgdeS7kNQM74LXJ67iIVk2LNYz5md1Izf5i5gofEgXQoYEClgQKSAAZECdjWZ7zZgG+npGlOkccYrn36hdjIgT3qcFIYfHPH6ZcD3gFc1XZDys4n1pA8yPxwA/wQ2zP6rBcaAJA8D1wTzdwNfa6gWFcSAJL8HDlS85zdNFKKyRAGZbKyK/Bb38J4lI69CxYkC8p/GqsjvZVTfTHNmE4WoLFFA+ro1ccwtBz4ZzD8JeFdDtaggUUC2AzubKqQAHwY+xfym1CuBHwNHNV6Rsqs6SP9yI1WU41Lgr8B1wNeBXwG3Y4/lBavqQuEW4B3AC0ZfSjFWAW/LXYTKUPUL8jiwkfEbiEWqRS/XQf4MnA78YsS1SMXp9ULhTtIj6jeR+iXZ7UILQj+dFWeAH85OkC4k9nKBLacJYA/NXvT8AHD1iNZ9aETrVRfD9OY9ODuV7ESa7xGwhupuKxoTbe+LdcYC2aZGpO0BOT/DNqdYWKfFW63NATkVOCvTti/JtF3VrK0BmSBd5MxlM2lo49xW0Ny4463U1oB8GliXcfuTpO4qKzPWAKlfWdQJUxXaeE/6JcAnchcBPI/UyfFs4JGMdXwEeCFwE/BExjruZQxvOmtTQJYDVwEX5i7k/5wK3AG8BbgzYx3rZ6ecvkh/AbkB+G/NNbS1xRSaIHUu3EG6mFnidIAU3lWj2QVAuq8+9/8zmq4Kat+bubZN3Qob50Q9F/g4cB+pvV9yl/RJ4P3AX4BvAq+j/F4IkQeArwLXU/+3fD+2AeeQ+gp+FtifsZaslgFvAD4EfIt0t2Pub8Rhp8eAW0jDGbwVOH7IfdTUL8hWDr+pbC3wjx6Wq/sX5Gbmf8FvHvD/1PUXZBxsIA3omPsDPeppH+kXcVC9fEiHnfYDz+iw7Yt7WDYKyGMD1HJ2h/UsAh4aYF0buxVWehNrDfAd8p8ubcJi4HPA9IDL76ivlK4epPOASXf3sGx0QmjvALXs6fDaDClsdawLKD8gbweW5i6iYe8ccLlbaq2isxOAZ3Z4faqHZZ8VzBtkYKANHV47mXRs2o8DwF0DbL8IV5K/6dP09OsB99Uq4NEG6tvK4ScYTqS35t32oPb1A9Sxn3RKf+5Lfgr40wDruS6oq3hvJv8HtunpyiH21zTpFoRR13g/6Z6Xa4F/97Hcs4Parx2wlt2kG/oGWXYXsLqH/VqsCeBW8n9om5p20LkJ04+NlHtN5GNB3UuAbzRYyz3A86t25jgM47wEeC9wLnB05lpGZR/wS+Dz1DNq8DGk47ezSN+QnY41Z3p8LXq9X38nndKO1vdy4ALS8cRR1PsZPUB6rNOPSFfqvbFNkiRJkiRJkiRJkiRJkiRJkiRJkiRJkiRJkiRJkiRJkiRJkiRJkiRJkiRJkiRJkqQm/Q8mjiHDhI5rQQAAAABJRU5ErkJggg==;fontStyle=1;labelPosition=center;align=center;" parent="1" vertex="1">
          <mxGeometry x="-580" y="275" width="100" height="100" as="geometry" />
        </mxCell>
        <mxCell id="q5vyzDshfGC3t1kQjIdC-40" style="edgeStyle=orthogonalEdgeStyle;rounded=0;orthogonalLoop=1;jettySize=auto;html=1;" parent="1" source="q5vyzDshfGC3t1kQjIdC-41" target="q5vyzDshfGC3t1kQjIdC-12" edge="1">
          <mxGeometry relative="1" as="geometry">
            <Array as="points">
              <mxPoint x="-335" y="400" />
              <mxPoint x="-169" y="400" />
            </Array>
          </mxGeometry>
        </mxCell>
        <mxCell id="q5vyzDshfGC3t1kQjIdC-41" value="" style="image;sketch=0;aspect=fixed;html=1;points=[];align=center;fontSize=12;image=img/lib/mscae/DNS.svg;" parent="1" vertex="1">
          <mxGeometry x="-380" y="280" width="90" height="90" as="geometry" />
        </mxCell>
        <mxCell id="q5vyzDshfGC3t1kQjIdC-42" style="edgeStyle=orthogonalEdgeStyle;rounded=0;orthogonalLoop=1;jettySize=auto;html=1;entryX=0.5;entryY=0;entryDx=0;entryDy=0;entryPerimeter=0;" parent="1" source="q5vyzDshfGC3t1kQjIdC-41" target="q5vyzDshfGC3t1kQjIdC-29" edge="1">
          <mxGeometry relative="1" as="geometry">
            <Array as="points">
              <mxPoint x="-335" y="400" />
              <mxPoint x="-493" y="400" />
            </Array>
          </mxGeometry>
        </mxCell>
      </root>
    </mxGraphModel>
  </diagram>
  <diagram name="arch-system" id="w2mRdCwQXAtVtmbqmMLy">
    <mxGraphModel dx="1440" dy="2440" grid="1" gridSize="10" guides="1" tooltips="1" connect="1" arrows="1" fold="1" page="1" pageScale="1" pageWidth="850" pageHeight="1100" math="0" shadow="0">
      <root>
        <mxCell id="0" />
        <mxCell id="1" parent="0" />
        <mxCell id="b7SMPCYk1F2Nh4VCUBtI-2" value="" style="rounded=0;whiteSpace=wrap;html=1;" parent="1" vertex="1">
          <mxGeometry x="40" y="-60" width="1160" height="800" as="geometry" />
        </mxCell>
        <mxCell id="b7SMPCYk1F2Nh4VCUBtI-3" value="" style="rounded=1;whiteSpace=wrap;html=1;fillColor=#f5f5f5;fontColor=#333333;strokeColor=#666666;verticalAlign=top;labelPosition=center;verticalLabelPosition=bottom;align=center;" parent="1" vertex="1">
          <mxGeometry x="110" y="340" width="1010" height="350" as="geometry" />
        </mxCell>
        <mxCell id="b7SMPCYk1F2Nh4VCUBtI-4" value="" style="edgeStyle=orthogonalEdgeStyle;rounded=0;orthogonalLoop=1;jettySize=auto;html=1;" parent="1" source="b7SMPCYk1F2Nh4VCUBtI-5" target="b7SMPCYk1F2Nh4VCUBtI-11" edge="1">
          <mxGeometry relative="1" as="geometry" />
        </mxCell>
        <mxCell id="b7SMPCYk1F2Nh4VCUBtI-5" value="&lt;b&gt;tech-medicos&lt;br&gt;Repository&lt;/b&gt;" style="shape=image;html=1;verticalAlign=top;verticalLabelPosition=bottom;labelBackgroundColor=#ffffff;imageAspect=0;aspect=fixed;image=https://cdn4.iconfinder.com/data/icons/ionicons/512/icon-social-github-128.png;labelPosition=center;align=center;" parent="1" vertex="1">
          <mxGeometry x="640" y="-40" width="90" height="90" as="geometry" />
        </mxCell>
        <mxCell id="b7SMPCYk1F2Nh4VCUBtI-6" style="edgeStyle=orthogonalEdgeStyle;rounded=0;orthogonalLoop=1;jettySize=auto;html=1;" parent="1" source="b7SMPCYk1F2Nh4VCUBtI-11" edge="1">
          <mxGeometry relative="1" as="geometry">
            <mxPoint x="585.0588235294117" y="366" as="targetPoint" />
          </mxGeometry>
        </mxCell>
        <mxCell id="b7SMPCYk1F2Nh4VCUBtI-9" style="edgeStyle=orthogonalEdgeStyle;rounded=0;orthogonalLoop=1;jettySize=auto;html=1;entryX=0;entryY=0.5;entryDx=0;entryDy=0;" parent="1" source="b7SMPCYk1F2Nh4VCUBtI-11" target="b7SMPCYk1F2Nh4VCUBtI-12" edge="1">
          <mxGeometry relative="1" as="geometry">
            <Array as="points">
              <mxPoint x="830" y="170" />
              <mxPoint x="830" y="210" />
              <mxPoint x="975" y="210" />
            </Array>
          </mxGeometry>
        </mxCell>
        <mxCell id="b7SMPCYk1F2Nh4VCUBtI-10" style="edgeStyle=orthogonalEdgeStyle;rounded=0;orthogonalLoop=1;jettySize=auto;html=1;entryX=0;entryY=0.5;entryDx=0;entryDy=0;" parent="1" source="b7SMPCYk1F2Nh4VCUBtI-11" target="b7SMPCYk1F2Nh4VCUBtI-64" edge="1">
          <mxGeometry relative="1" as="geometry">
            <Array as="points">
              <mxPoint x="830" y="170" />
              <mxPoint x="830" y="62" />
            </Array>
          </mxGeometry>
        </mxCell>
        <mxCell id="b7SMPCYk1F2Nh4VCUBtI-11" value="CI/CD&#xa;Actions" style="shape=image;verticalLabelPosition=bottom;labelBackgroundColor=default;verticalAlign=top;aspect=fixed;imageAspect=0;image=data:image/png,iVBORw0KGgoAAAANSUhEUgAAARgAAAEYCAYAAACHjumMAAAydklEQVR4nOydDYgdV3bnT82IpRIEWwKz8wxGLtUYRmaGdos4WGJadDWuME9kBrUYZ2WPO0hiJm2JJFgGx6omztZ9xLNd9jpIZj1Y7jhYYtuxRBzUghn0ZrdCV6c1SCYe1O51kMKa55IwzAsYpnZXJJVFUMvtvs9qtfrj3Vv31sd75wdNHM2rW7f7X+/Uueeee84W6AFMPzUAYDf7+QYA1Og/s5+1SADgKvvvGwDwzwDQjFztao7TRpCeRyt6AjwYjrcTAB7TLXtQt2z634+wH13ibT4HgE8BIEpa4adJK/wEAD6Og0Yk8R4I0heU3sBQo2I45AQA2Bt4JHmwAACnIlc7W+AcEKRSlM7A6NbwVt2yn9Qt26Y/APAtACjTUi6my6qkFQZJK/xZ0go/Slpzd4qeFIKUkVIZGNNPDwPAJIuhVAXq2bwQuVpY9EQQpGwUamB0a3iLbtlDhkMOAcDTkmMpeXM1Dsg5AJiLg8ZC0ZNBkDJQmIFhOz/vA0C9qDko5EzkakeKngSCFM1Xirip4Xi7AeCzHjUulMOmn84ajldkUBpBCic3D4Yth75vOKTeA8uhbvkCAN5pT9k/SVpznxc9GQTJm9wMjOmn7zPD0o+0AWBf5GoYm0H6CuVLpNr47PdNP/2sj40LsF2xa2zZ9O2iJ4MgeaHUgzH99CQAHFd5jw1YeRxgNTsL3Aqn83omcrWZgu6PILmhxMAYjmcaDnlLcRA3BoBP6E8ckPaKM0VRt2n9huMZzNDQn68bDnmEGZ9B1VnDSSt8M2mFfxIHjUTlfRCkSKQbGJYs967scVewAACNPDwA00+fZx6YKmMTxQHZEweNtqLxEaRQpBoYw/G+YzikKXPMFVDDMhG5mqrx18X000MAQBQZmtORqx1TMC6CFI4UA7NiC/qUxNgGXTo0k1b406QV/m0cNGJJ4wpjON6w4ZBRVhbicYlnpGbigDQwAxjpNaQYGLaUOCVjLAZdOhwo8xfO9NM6y0Q2ZI0ZB2RXmX9nBOHlq1kupp7LQyeiPwaAVwDg32WcC/VYgjggL7anRo4lrblSxyXioPEpALxBjeGWbeZ2GZ4bOz3+i7L/7gjSLZk8GMPxDhrO0gG/rNC39kjkaoUvg0Qx/XQSAFwZY6Eng/QKwh4MC+ieBoCtGe7/OQD85/aU/cdf/M2RyhoXWPZo/g4A5nTLTthWt7BHxzyZv01ac7flzhJB8kXIg5G0FR2zLdobGccpHZJ20+jf51HcwkaqDPdRAXZCOKtxoV+aHb1oXGDZm/k5ABxgcSVRDMMhByVOC0FyR8DALGXoZmGmPWXbVY63dEPkajNJK6yzDGNRXjYcz5Y4LQTJFa4lUsazRX17Bsf002vs+IEoI1iSE6kiXXswtfHZ72cxLkkrHOtH40JpT9nfo55bhiEuGY73mMQpIUgudO3BsJILIqny1HPZg7VQMgfHZyJXOyB5SgiilE09GN0a3mL66QVR48I8l743LrAclzmTtELRXJnvmn76nOQpIYhSujAwNl0ajQqO/0x7auRvBa/tSdpTI68CwBmBS7cAwGnW3RJBKsGmSyTTT6lLf1hgbOkuPTv/89yKei0xywKeiwNypkrtXTMsOd3I1V5VMCUEkc6GHgyr/i9S6rLdnrKlpM0bjvckXaKZfvorALjEvKnOF9NgLWU9wyH/y/TT2dr47CEZ91VN0gp/JJgnc5QVykKQ0rOuB8P6Fn0mcFqYehU7ZOS5mH5KqPEQuHSBncYutUeTIeiLfZeQSrCmB6Nbw1sESxF8HgdkjwzjUhufPSloXCiDhkPmTT89UeaYReRqZwBgWuDSw1g8HKkC6xgYe0iwnu6bMtL/TT89qVt21mLhDwGAbzjkepl3X+KA/JnIdYZDfiR/NggilzUNDOsVzctCe8p+O+uEDMf7joJOBG+afnrJcLxhyeNmhi3jRgXiMXWMxSBlZ80YjOmn/8rZeZF+OR6UFHe5kGFbvBsacUD8slXzF4zHYCwGKTX3eTDsQedt6xpKPLyo+nCfZzhkUvE9uGHxGN6g9CgLxiNIKbnHwOjW8FYA4P7yxcFS4anMmH76tMwatxtw3PTT66afero1/FAO9+uKpBW+w3kJ/VtlPd2OIMpYZWDsJwVqy0Zx0LgoaT55BmN3AgCpjYfzpp8qbbLWLUkr/InAZU+zGj0IUjpWGxje5UkSB0Rmtu5uiWN1C/1yflYbn32r6C8qa81yVODSJxVMB0Eyc0+QV6BuidTjAKafprLGysDTkaudL3ICAscIzkWu9ozCKSGIEF96MCwh7Vs8Fyet8KdKZtUdYdIKxzJWjFuLadNP3zcc75BuDfMGu6WQtMIPOC8ZUjQVBMnECgNDTvB2KkxaYaEnpdtTI+9FrvYoAIywIwoy2LIc1yBnauPhBUljcpG0wp9xXvKQ6acqt/YRRIiVMRje+MtCGdq5wvIWbyh44nsz6nTZaDierHa43SJSP6d0SYQIsmRg2PKIN8A5oWZKYkSudjEOyINJKzyVsZr/agYNh/yD6acndGv4AYnjrgsz3Lw1Yw4XtaRDkPXoeDC89V4XIlfL2vdHOnHQaLenRl4AgEclx2aWzjXlvKXd4Py8oVt2aQ92Iv3JkoHRLZu34j3vw58rkatF7Sl7LwAQALgqcWj6Bb7OzjUpPc1MfwcA+ITzsm8qmg6CCNExMDxvvrgK3QGS1twXkas1IlfbQ70PiUPrywcNyWXTT4nheCqXJR9xfv4RRfNAECE6SySeB5P3rVo4katNxAEZAQDZ2+qe4ZBZw/EOsho6UokDwhXsNRzClWaAIKrpCwMDy/GZMHK17wHAEclB4N2GQ87VxsP/JnHMDh9zfr4056oQhPIVdhq3azc/Dkilm7GzU8sqtrSfZrWDZR7W5P1b572djiAb8hWB8z+Vb1gfudr5OCA74oAcFyiRsBGjAHC9Nj4rJQCctELeuaGBQUqFiIH5Z0VzyZU4aERx0HgjDsgeAJDZ97mmW/abMgZKWnMJ59x000+z9MBGEKlQA/MNzmtKXamflzhotCNXG5F8rmnQ9NO3JAV+eeeEXgxSGr7C+0CWvRWIKCvONZ2SNORR3bIflzDOP3F+voiSFwiyJl/hPCJQqjq2KmhP2X8SB6QOAKcB4HaWsXTL/l0JU8K+3khl4TUwMrNiS0nSmrsTB42fR652LA7I72Q5pc3av+TNwwXcE0HWZNPm9/1MHDSoQd2VIe4k49wSrweD5TOR0oAGZhPYuabfZueaPue8PHPAVWK3BgTJHTQwXdA518SWTDxg+QSkr5F+fqYX0a3hrbplf99wyIucl95RNCUEqQRoYDaBpf5fEGwIx7ukWuv+GFNBKssWtvXcrSvfNwWNDMczdMv+QwB4MUMzOBmJe7wGpud3+pDqsIU9kN2+nfsiS9T00+MA4GXtMhkHRMYRBN45/JuEeyKIFLiDvPTNrmYq5cD0U2pYTkpqYSsjSQ7PFiGV5St41mWZ2vjsftNPr7DtaBk0k1Y4J2Ec3sQ5mQc3ESQTWwROR9d6oWRDB+qRGQ4RDeKuRztytX2SxuL1YPBoAVIaqIFpsnhDt3y9F96SrA/1d9jWs8xatknSCkX6S9+Hbg1v5TQwtzExDykTWyJXu2r63beENhzySByUuqnApph+ehAAzikYmnoPR9pTI1K8CN2yeQ3fFzLuiyCy6AR5efI1KrtVbTjeE6af0uXQtOSh20krfDEOyJ7I1WQuUXhr9fTM0hXpDTqJdp9yFIyu5K6G6aeEcynYLU2J8ZZ7MBzC+7fuyVo9SHXpGBieB7NymaWmn54EgOMKhg7jgDyjYNwOXH/rqhdkR3qPpSVS0go/5bnI9NPnlc1IEro1/JDpp57pp9cVGJerSSscjVxthPWRVgVvdTrcQUJKxZIHk7TCT3SLa5eWfmHfUDarjLDC1xcUeFvUQ9gnOc6yJux34J0/bx8lBFFKJ8j7S87rTNNPDymYTyYMx9tp+um7AHBNsnH5AgBIe8r+7TyMC2OS8/NRr9ZLRqrLkgcTB43PDWepTSlPUJEAwFl1U+PD9NPnWB1d2URxQEby/PKyHJ0652Wl9SiR/mXlWSTeavqm4XjDkufDhW4NG4bjPWf66SUAkNKLaAVR0gr/KA7Io3l7BgLFwpM4ICryehAkE9rK/8f0019zHvI7FbnaC7ImY/pp9xl/ywHNREGbDjrmMdZithCYweTxYK5GrrZH4ZQQRIjVBaducH5hi+zBoyof53DkaucVjd0tuHuE9AT3lGtIWmHAef3jpp/yxgo2orBzNEkrPB0HZEfRxoUFqblKRUiqO4Mg0lltYH7GeT31gN43HE9WcesivigRAOxoT40cK3oXxnA86pUdFrj05wqmgyCZWW1gPhJwtw3dsp+VNJ+3JY3TDVdXbD2XYntXt2yRrX9fcbIfggijrf4H009tAJjlHGchcrVdMiZk+ulnORxH8CNXm1B8Dy5YcfFfcbY6iSJX26FwWgiSiftKZkauFgoUjh40/ZQ3MWxNklaocrt1hp14LpVxMRyvxjKPeYzLHQA4onBaCJKZr67z71t1y+YN3g4BwFzSmsu03NiyzfxH3bJ5+w9tBl1CPBO5WiNpzWVuJSKb2ng4L7Bz9Pf091E0JQSRwnpFv4VqyRoOOZhtOktZxW0Fb+bDkavNSB5TCobj2YJb7rhzhJSeNQ1MHDQWAEAk0WzMcLzvZJ1U5GpnklboZxzmRhyQw3FAHoxc7WLWOanAcDzdcIhIjZokDsh7CqaEIFK5L8i7EtNPZwWLYR+Q4TGYfjoKAO8L9HieiQPyTBw0kqxzUAnLeRHZlm5Eriar+wGCKGO9GEyHOd2yxwDgNznHHdUt+/LtX569mWFu1JO6QY2Fbtn/jxmZBzZY1n0BAP89Dsjx9tTIj5PWXKn7QtfGZ3+4ZZv5nwQu/ShyNVlpAQiilA09GFh+y04CgCsw9o3I1R4Vm9baGI5nGg6hb/zHWLYr9VA+BICFOCDNsnssHVi/6esCnhksL/sapTnFjiAbsamB0a3hh2rj4T8INlxbaE/Z3yvjzk1R1MZnv61b9geCf8+wPWXvS1pzlTCkCLKpgYG71dWuCd5jJnK1A4LX9hwZEgnbkas9qGBKCKKMrnpTsypuotuio6afigQyew4W1BXNUi7lNjuCbMRmQd6VfKpb9g/WKPHQDaO6ZSe3f3n2FwLXVh66LHrg9878fYb2tFF7yj5y59c3/4/kqSGIUrpaInVg28YXMtzvTORqfZXezgK6VwRjLsCykHdgS1ikinS1ROoQudpM0gqzlKY8bPrpZ7Xx2SczjFEZauOzP2S7RaLG5dM4ILvQuCBVhcvAwPJhxD/J2EHQ1C37p70clzEcTzf99F3dst8R2YruEAfkxaJr1CBIFnhiMEuwBLbzumVvBYDHBe+7BQBGDYc8AgDXktZcz7yhDcezDYf8Jf39MgxzGwBeak+NYL4LUmm4YjCrYY3ks3yROoyW9bxQtxiOVzMccklSreDS1atBEBG4l0griQMiq1zAuSovmUw/NQyHvC/JuMRxQLDHEdITcC+RVpK05toAcFG3bJudExKls2Q6rFu2vmWb+Y9VyFY1HG/QcMiJLdvMcwDwiIQhL8cBGWYlKxCk8mRaInVgXzTRTN/1OBq5Wp41ernIcBJ6PWLW5A2NC9IzSDEwcNfI0GXCTlljsu6KH7BuBwtFFrc2HM/ULft3dcv+Lqs+x9VaZANuA8CbdFmExgXpNaQZGLgb6Lwu8cu3mjOsFkpuW7fsHNakQK/objkeuRrGXJCeRKqBgbtG5iAAvJwxLrMRnwDAR3Gw1LD/YwBoJ60wyhK30a3hrbplPwIA3zAcMsjODO1W2OHgU5bnUundMwTZCOkGpgPLB+Ftf5KVkLW//acV/Z0WVmbCstR9k3lZ1JA8zP6vqla0axHHAdmFSXRIr6PMwMDdHkuXsmSz9iDUqJQi/Z/pY68o4LV7Ha2osW6z4l4Ra7Z/o4Ap9x1V10ipgYFlT+YxwyEEAL4reBK7V6Diz7Sn7B/nXYCL9V36tuGQx5mntlPC0i9mS9VP4oBcpQ82K3GKCNCrGik3MB1MP30OAE7ndb+SEUauNpL3Tdly8KSkbOtuoA80waB19/S6RrkZGFi20jsNh+wHgKM5tIctAx/FAXkzaYXn80ocNBxvULfsZ3XLfqrAvzF9iD+IA/JB0grnqpA0mSf9pFGuBqaD4XiG4ZCTkhPVygQV69W8W4soSP6TAXXN95Uh5lQG+k2jQgxMB8Px6JrzRyzHRLRmSlm4AwCX6XIoDsh7cdD4NI+bUmOtW/bzumUfV5h/lBVqcK8mrfD19tTIz4qeTN70s0aFGpgOKzya0RILsBERAByJXC3Xdq6mn9IH1qvY36wSTfFk0e8alcLAdDD9lIrwFgA8XfRcOCiktILpp88DwKm87yuJviidihqVzMB0MBzPBIAnDYc4ADAEAA8VPSdGwvINFuKAUG/l53mfj9Kt4a/XxsNXAOCpim/7X40DcjwOGh8WPRHZoEZ3KaWBWQ0rNj7MgmNFuJp0CfRGHJBzRR5IZB7etR7agaMGew9ri9MToEb3UgkD00G3hnXdsncCwDeZdyMzGn+b9be+QQ1KHJA281Y+LkNKf218dr9u2ad7IBi+GvoAN9tT9jFWX6iyoEb3UykDsxKWQs171ulqJ1oOAP/G/i1cfV6pbLAT3VdyOHIRrVHQvSa5BMd6VLoDKGq0Nn1lYOKA1OOg8XN1s5KLbg1vrY2Hf84SE2U9uJ04UsTSx5dOo2+WQs5S2elD/DXdsgfpD4uPbZU0L2BHKSrlyaBGG9NvBsaNg8ar6mYlF9NPTwCAL2k4+tCeiwPSkLXkY+kFxwHgeYmxsUp5MqjRxvSVgQGA05GrHVM0JamwYGGWpm0rocu/ZyJXa0oY6z7YEZC3MrTGXUllAr+o0eYaZeoqUEGcoifQDbo1nLXdbIerSSs8HAfkQVUPLix5ho0bkauNxAHZkbRCnz2AotBlxhXD8Z6QOEXpoEbdadRvHgxlJO+MW14knFdps7MlhXgB7M1+idUuEeVq5Gp7JE5LKqjREptq1G8eDOWkbg2XtgCW6aeHAGBM8PI7AHCmPWUXusSIXC1uT9nfAwDCtv9F2E2/xIbjlU4r1OhLNtWoHw3MoG7Z3yl6EmtB18mssLlo9ufLkasdSVpzheftJK25LyJXa8QBEf0iUg6zThWlATW6jw016kcDA4ZDynZcfgnDIX8qeOkXAHC8PWX/heQpZSYOGhfjgFA3ekZwiNHa+Ox+ydMSBjVak3U16scYTIddZdqpYJXNPhO5Ng7I4TholL5RfoZe5oVUBFwNarQha2rUlx4M42TRE1jFu4LXUSN5XvJclBAHRDQHaTcLShYNarQ+a2rUzwbGptZat4ZlZjkKYfqpJ5CfcAcAfOraVqW2Shw0rsYBGRUIKurUWy0yOI8abcqaGvWzgYHltWP4wyInwEpTiJTW/GnkahNVeXA7sEZzrwtcOqhb9rCCKW0KatQ192nU7waG4hqOlyUXIBO6ZYsEMOM4IC8rmE4utKfsn7ADp1wYDnlKzYw2BjXqntUaoYEBqBkOuWI4Xp6dHb9Et2yRgNqROGj8o4Lp5ELSmvsCAPYJZJMWZWBQo+65R6N+3kVazQ1WhzS3nSV2PuQa5yncZuRq+xROq2tW1Od5mP3T/05a4UdJa66r9XttfHZSt2yX87bH8+y7hBpl06jK5fxk03mQduVlZAyHnOA94h8HpBTN69iOwewaPb0jADjQTQpA0grfFnh4CQDkaGBQoywa4RJpFYZDRLciRRBxvecUzIMLVnfk2hoPLrBSkbPdLDlZSQLec2EGy6bNC9Qog0ZoYO5n0PTTX5l+6unW8AOqbsJOovLmdhzPu8j4auiDazjkbzapOWsYDnmrm3NEcUCOsVIFPORy0ho1WiaLRmhg1oZaf1IbD+cVJnjxBpXbRfd8Nv100HDIdVYlbTN2Gw7ZtP0Mq9LG9XsZDslr1w81yqgRGpiNoW7er2rjs2/J3mUyHMI7XiDz/rzUxme/z+qf8Bhcr5sPxQE5xZnY9S2OzwqDGt1FVCM0MJuj65Z91HDINdNPL0j0aLjiCHFALku6Lzf0rahb9rRAzdmuWnewJQXP75eLgUGN7iKqERoYPkYB4Nemn16vjc/+V8PxDmYIOPJ+SQppULbirSiSpt918e6kFfLs3Bmmn+YR6EWNViCiEW5Ti7FTt2z680ew7EoDO+r+MTvY1k1AjCuAnGd+TgfWikPkrdjhXLcfpA+vbnEd9amzHlYqQY1WIKJRPxmYBgDsFwjcdcuo4JZmN+T+4LJtztmMrTh4AoP/zDn2SdNPy3QiHjW6H6OfDAy0p+yna+PhOYVGRhVd5yEYjrdbt+z9rCeOzrypG3FAprtNXV+xzSkcb0pa4en21AhP1TbV3ohqUKP7eaKfjgo0IlcjkK2oTlEciFxt02pjpp8+DwCn1vmfu2o1wVzu2Yw9dBZEShSYfppmuGfRoEZr3KMvg7ztKfv3WTpz4XVRu2TTmI7pp3UAeGWDjyy1mmABwTUR3OZczQcZ6p9U2YtBje5nsC8NTNKaux25GvVodmSoQ5obm7VZYdmYl7poEarrlj3N3oD3kGGbcyX0rfj7GeqfVKZl7GpQo7XpSwOzkvaU/UwcLBUB/6TouWTg2xyfXXpLmn56slPNL+M2J7AErONVqtxWAH2pUV8Fedciac0lSWvuLACcNxwySUUoek4CPMT5efqQHq+NL710z2bc5gTWiqPQFPkK0Jca9b0H04Fa9cjVXsjYrU8JCs9DHZWwzUld7rclzqmSoEZrgwZmFZGrnY0Dso0VPn5H4BSpCjbbVv9UcFy9wGDhWnSVtl5SUKM1QAOzBnHQiOOgcTFytT+IXG0b82qKNDSbifrLAuaXNVi4FlU2MKjR/YRoYLqAejXU0MQBGYwDQl1WHwB+yra57+QwhQ3rn9AHKA7Ivhx3YWS/FSHnIlIqQI3uJ+77IC8PcdD4GAA+joPGl/9mOJ7Oal8MMlf2sS5dWp5DHfUu5naVrtcNh6jedlfxVgRWg4eHKIc8JtToXng1+hgNTEaW30yNkLesoOmn/7eLnIgvP244Xi0OGhu+/Vg/m1HDWaoJy/swbMZtAHg5DsjbirY5H+P8/JHNck+yghrdB69GIRqY4vics94IdcEvbvYh9gCDgrek0m1O3ip1qo0LAzVagYhGGIMpDt61eNfBNfYAn+Gf0rrksc3JEzzM64gHanQv3BqhgSkIzuI99O3BVYgjcrUjbKs9a1BRerBwNaw1K88J91zOLKFGdxHVCA1MQfA+vN0EEVdD35Js10sUVcHCezAc4nEmkuVSewU1uouoRmhgioO3vKJu+ulbvDdhD7DIW1L5WxHunjDetLL9SuKAfKRuRveAGmXUCA1MQbBWELyxhKPMVeW9F+9b8kzkar+n/q24dML4fYE0+F8omtI9oEbZNUIDUyy8LTlBt+wfityoy7dkm34mcrUjIvfgRbfsgwJp8DObbQVLBjXKoBEamAKJXO08r1vcKTQuAnuAR9Z5K8dxQA50tlDzQLdskdjDCwqmsi6oUTaN0MAUz1XOzxumnxLRm1G3nxXaOgAAp1nBrWPLRyEavHMRhhVU4u3QGEWuVkQVQtSoe+7RCBPtCiZphTO6ZfPWB/Zq47Pz7amRvxO9L6sfW0g1P90aNll1Ny6SVviBmhltel/UqEtWa4QeTMEkrfC8yHW6Zb8ufzb5UBsPPZE0+aQVvqdmRpveFzXqktUaoYEpGLYLcJhVlOdh0PTTC6w3TiXQreEtpp+eAIAxgcvPFNHYDFAjHu7TCA1MCYhc7SwAvCpw6ajhkOtVeYBr4+EfslIXvEvzOK9dk/VAjTZlTY3QwJSEOCC+YOFxw3DI35T5AV4uaeEdEtnyhWW3e70+QrmCGq3PehphkLckMDf8dcMhIgfghuhbEgAezTlHZFNYvZwrGbppxkkrLEVBcdRoXdbVCD2YcnExQ1lF+pbkTlNXDTvDkqVVbyMOGmWoi9wBNbqfdTVCA1MilmsBL5VVFH2AR00/vVYbn31S8tS4MRzvm6xF74uCQ9wBgOORq5ViedQBNbqHTTVCA1MyWCJVli/VoG7ZQZZEr6yYfjpqOOQy6/8tugz/oKy9llCjL9lUIzQwJaQ9Zf+FhAQrz/TTX9fGZ/9c5PAdL4bjGYbj7Tf99BIAXMjYaiNqT9kvS5yedFCj7jTSMtygUEw/tVlDqm5pRK5W2BtDBOpKZ1wbr+R05GrHJI11D6afPp/xjb6SNgA8GrlameIu64IabQwamBKjW8PfqI2HocTi0AkANOOAhOww3YciOxqG49Ev1BOGQ4YAwJE5v6QVPt2eGsntMF9WUKONQQNTclhL0lmJb8nV0Ie4yYor0f9eWPlmMv10N3s4h1kbD1XzoF+sPZGrFZKtmwXUaH3QwFQA9gBfV9DmokycYr3BKwlqtDYY5K0A9G3VnrLtvGrR5gx1/0l7yv6zoieSBdRobdDAVISkNfdPkavtKur4viJusGBhI2nN3S56MllBje4HDUzFaE/Zv0/fJgU348/KHQA4056y91Vlt4gH1OguaGAqBn2L0LdJxmzSovlR5GpHktZcEdXplIMa3QUPO1YUlk26AwD2Gw55EQC+VfScumA6DsiPWbX+ngc1QgNTadgBs7MAcN5wiAsAJwTaS+RByJrV96THshH9rhFuU/cQpp8ektzvWAaELheKnkRZ6DeNMAbTQ0SudjYOyG8krfAw28koou5IAgBXk1b4YhyQHWhc7qXfNEIPpscx/fQgK4Go+jBdvNxwi7zaLzEWWfSyRhiD6XFY47DzhuPtBIAndMsepD8s4/QhANgqMOwXrHTkjTggC8sN2Bu8fZwRRi9rhB5Mn8Oaa+1kP/9+jXMsEQDcZP83ilwtLGiqfUuVNUIPps9hB9d6Mb29Z6iyRhjkRRBEGWhgEARRBhoYBEGUgQYGQRBloIFBEEQZaGAQBFEGGhgEQZSBBgZBEGWggUEQRBloYBAEUQYeFehzqnzOpV+YaPJpNFkvj0ZoYPoEWSd1TT+FspzU7TWGxpY12j5gDz48IK7RRPNejeanlzW6PI2nqbsGT1N3Ry/XGukVJpr5ajQ/TV69PJ2PRv1kYJQ1Fi8ThuPpumUf1C17FAB2F9BpsFMtbSZphRfjoNF3dXg3Y2jM07cP2AcfHihWo5uL4cytxfDi5Wl1GlXZwBgA8GuOS8LI1UYUTqlw+q3eaxWZaJZTo8m6Go0qa2Bg+QuVcnw8jlxtm8LpFAb1WvqxYn2VoF7L3rHyazRZl6vRV2UOljeGQ45yBMCoqD9JWnP/onhauWE4nkGXQ4ZD6BvxP5Y4aG8CwHHDIY8AwPWkNfdF0RPKi6Exz6DLob1j1dBo79iyRrcW5WhUdQ/m2hpbdusSB2QPa4ZVeQzH22045BL9z6LnIsDhyNXOFj0J1QyNebv3jlVXo8l6do2qnmjH6849pmgeuaFbw1tNP/UqbFwo75h++q5uDaveNSmE7QPDWyeaqVdh40J5Z6KZvrt9IJtGVfdgJgHA5bik8jtJpp9eAIDRouchiRsAsKfXGuBPNHtPo8m6mEaV9mDigPDu5e9WNBXl6NbwN9iSsFceXGCZqddNPz1BPbOiJ5OV7QPD35ho9qZGE830BPXMeC+utAdjON6g4ZBrnJftqNpuBtuSv15AvkSenIpc7YWiJyHKRLM/NJqs82lUaQ9GIAYDVXu7MOMyq/DBpX/D0wBwBABGAGBb5Gpa54f92wH6cClunXGUnYuqHMy45KrRZF3TOj95asTORXVNpT0YWP4CXgKAOsclcXvK3pG05kq/7qfLotp4GEp8cBMAaMYBCdlD+2EcNLh7I1PPEQCeMBwyBACOzPklrfDp9tTIRUnjKYcui559Tb5G89N3Nbo8za/R0NiyRnvH5Gt0czF8+q9f6k6jXjAw1CO5wHNNHJDDcdAo/TYp7zb8JigLcJt++jx7e8qAfpkerUrgl8VcpGk0WVej0URTvkbdBH6rvkSCyNVmAIArt8VwSKmXSWwr+oKEBzdOWuErcUB2qNw9i1ztjTgg2+Jg6e/azDgcfdNe063hr0uanhLYVrQUjW4uhq/MT5MdqowLZbKuvTE/TbbNT8vTaPvA5hpV3oOBuzVNeIO9u1hLztJh+qkHAFlPfhd2epx5le9mzAE5F7naMxKnJZWJphyNJuvFaDTRlKPRZH1jjSrvwcDd3r2fcF52wXC80iV6GY63GwCOZxhiIWmFTpGlKahXGQdLa3/qXd4RHOYptvQqHUNj2TW6uRg6RRkXWPZoZuans2vEll7r0hMeDIi/9aM4II/GQSNRNC0uDMczDId8luGtMhO52gHJ08qEQDLkal6IXE1W7CAzQ2OesXcsm0aT9XJpNNHMrtFkfW2NesKDgeXArchyh3owwwqmI8r+DA9uHAekdFnKcUAaGbdOPWp4JU4pK5k0mp8un0bz09k1ooZ3rf+h0qepV3Fz628d/i7vdpxu2Y8AwHtJa07UTZQCK7lwBgD+g8Dll+OADItsOauG/V3PJq3wU92yqUv+m5xD6HSY2788O6doil3DSi4IazQ/TYZFtpxVc2txWaNbi+GnDw+Ia/Q//8f9GvXMEgmW3XHqkXwmcGnhSwvTT+nyzhO4NGbLvNI9uKvJsJ1dilo+E01xjeanyaNlNC6rybCdHU/W79eoZ5ZIsBxcjFjQipfR2vhsYQFFVonuhMClM1UxLpT2lP0Tttbn9RYN00/fVTStrmCV6IQ0qopxobz3krhGE837NeopDwaWlxq24RCeWr0dEnayN9eta7Y0+leBSxciV9ulYErKYcbiMO91cUB2xUEj99QCtjQS0miyXk2NmLHg1mh+muy6PH1Xo57yYGBpzR9eZuc2eKHryCu18dnvK5jW+je17IMi1yWt8EX5s8mH9pTdYNmgXOiW/ayaGW3M9gExjW4uVlej914S02j7wL0a9aCBmbvDslZF2jLoumVP53nojlX/56XRnhr5OwXTyYWkNUeXsvt4r9Mt+yk1M9oYVv2fl8Zfv1RdjW4timn08MC9GvWcgVnBOcHrqCczm6OR4a1RE/dCfye2FOUtX2qyQH7ecGtUZBKdLCbrYhpNNO9q1LMGhgUURdfrBgBcq43P/qnkad0Da4rGta2etMI31c0oX5JWKLKUPalgKuvCmqJxaXRzsXc0urmYTaOeNTCscv1IlgQi3bJfMf10VmGil897QdIK/0rNVPInaYXnWbdBHkYNx8uzqBO3RrcWe0ejW4tiGg2NLWvUswYGlt3wOA7IvoxZiku7UobjHdStYWn9bFivaF53/3QvdUpkRzSeYTt4PHxb0ZTugfWK5tZIZafEvLk8nU2jnjYwsPwQtyWk0A8aDjlXGw+56s5swhOcn0+qXrB8LSJXa/LGywyHPK5uRvfArZHKkgtFMVnn12jv2LJGPW9gYNnIXGW1SrImO9VNP/216acXDMfbn2Ug3bJ5g8hZa3iUFnZeiecNmUsAfvsAatSBnVfi1qgvDAwsG5mLcUBkRPaN5TgAmTH99DNW+4QbXgPDylz2JGzZx7OM3alwOl/yMKeBYWUuexK27OPWqG8MDOOs5KLIdH1+gXo0pp/ybmXyBip7Zl2/Djy/X15b1ajRvXBr1FcGJg4aSRyQPYLboxtBvZgrpp9eN/30Um18dtJwvEOG4z2+QVGrhzjv8aGEeZaWOCBc+Ramn9rqZvMlqNEK5qf5NJpopnZZG3ErY3nnonHM9FNd5KzFJlC3cKdu2XXduvv8G87Syixa9QbgaWIViR5onGimdQB4ji3tYgB4mwXtMjM05g3uHSPPr/Ao5uanyWnBg30fc36e/oGFlyTsfNFuptlqT+Vr7N+5NKrKgcYMcGvUdwamQ+RqRwzHe8NwyF8CQB67EmYG157LIGwfGN6yfcD+4d4xcniNLNTRiWZ6dX6anLm1GP4VqwXCxfaB4a8/+1r4CvPcVm7d29Tg7B0jp997yf7xrcW52xzD8n45hfqMM6NIDe5TAPCAyBjr0LMB3hVwa9RXS6TVxEFjIQ7I7yhuViUDLtd7+4D9LP2Sb5Divpv+76sPpnXLs6+FrwPA06uMSwfqKbnPvhZyZUHHQYP37Bh38iMzLtcA4Khk4wK9vjyC5UAvt0Z9bWBg+cGOI1fblbTC4wIZi3nBFTzcO0a6Kkjd7edWwlLnv9vFR492sjk54Pk9uWMwe8fIf+G9hoNeD/B24NKo7w1Mh/bUyBsAsEPgcFcedO1hsdae3W6vDvK2AmWp890srY29Y+Qo59jKvqTsAJ6javwKeMGy4NIIDcwK2NGCA1mChyrg7HLI+2bn/TxPHKlMBdWVJud10+WwH0EDs4o4aLQjVxuJA7ILAN4ROINRNLyxia4/PzTmSTuLVQCVbKxfddDArEMcNBYiV/sDAHiwYjsEvN5X159nB9943tRlikv0yxKmVKCB2QS6PIlcbR/1aJJW6LMHNVevhiepjCVDfd7lxz/nTZ7iKF+QzE+TNzjHVlaGgaXxK1vGTDRzSfwrA1waoYHpEurRtKdGJlih7QdF6oRkoOtlDPMy3uny4++wz3fNZF17tctypDMriz93Cc8ZI66xL0834gxVDruhTM3hVMKlERoYAZhXMxEH5DfigAzFwdJ27xn20KvI5uQKlr73kv0XrLfNem9s+u+n2Oe4ubkY/mgDI3OHGpf3XrJf5hlToIgU99+ZFbIWaWvTDWUKaCtBIO2g3beZvDJgBZN+QX/ioPHlv9Mvi+EspaE/wZLdjIxBRi73+9bi3O3JuvYCALww0UzfYollHU5nrVny1y+N0N/50YlmeoL10Om8vSP6/0/WtfMCw/KekOZObLu1ONeerGsH2Nb8+5JPZffDEolbIzQwClguctWY2ehtafppyjGksHFixkRJESS2XHpV0nBf4/y8cDxlsq4tDI15u9hZJH2tmNpkXQsnmvloVCG4NUIDUxxf8KSrG443WETTsbzIuwDX5elGcnm6sdkOGpdGQ2PeoEDcqTKIFODCGExxfML5ed7yjZWC08DEkauJ9L3iBTVaAWcBrniyrt1AA1McXF8QwyFD6qZSLKxrA8/vx/vFF4VLo71jvavR0JiYRmhgCiIOCK8rrfIcTaEYztIuHE/tlVwMzPw0atSBHYzl1ggNTHHwPrw100+fVzSXwmDtW7h+L97qdxng1mii2XsasfYtXL9XJ4ETDUxBxEHjQ4GdkFMKm8AVguGQtwSS1HKpvXJ5WkwjtpzoGfaOiWuEBqZYRJK+eiahi9Ur5s0fiQWKU2WhrzUaGhPTqFOcCg1MgcQBeZX3XJPhcNdYKS26ZT8ncFmuTeXnp/k1EqiDU1q2D2TTSJM7HYQX00+vbFDacj0ORK6mKuU9F0w/pS73r9Ypu7keceRq2xROa00mmmIaTdarrdFEU0yjyfpdjdCDKZikFYocwHvXcLxvKphOLujW8AMAcInzwaV8oGhKG3JzUUyjobHqarR9QI5GaGAKJmmFFwUuMwyHvKJgOrlQGw//UMAjoEvKQgzMrUUxjfaOVVejZ18T02h+mqCBKROsbapIXOG7pp9OGk61qsyxnt4vCly6kLTCOQVT2hTWNlVIo4lmOlm1SoBDY+Ia3Vq8VyOMwZQE009nBU/kLsQB2cNOdpcaw/F2Gw65InAp/d0e5KxNLJ2JprhG89NkD2/tnSIYGvN27x0T12h1bWL0YMrDEcHrBgHgoOS5KMFwyAnBS68WbVwYPa/R3jFxjdYqfI4GpiRErkbd8GmRaw2HvG766fO6NVzK0/HUczH99ALrBMlN0gpPyZ8VP5N1cY32jpHXJ5rp89sHyqkR9VwmmuIa3VxcW6OvZp4ZIpPrumX/kcB1vwkA9a2/dfhf4qDxCwXzEsZwvP2GQ4IMxZ1mPn91R0PytLJw/eEBcY0Gfufwv1yeLpdGQ2Pe/r1j2TR669DaGqEHUyJYhuphVnZShFdMP31Xt4ZFe2BLQ7eGHzD91DMcIvTGZ5yJA/KMxGllhmWoZtJoopm+u32geI22Dww/MNFMvb1j2TSan15fIwzylhBqJNhDLEobAPZFrlZI8SOWRHdJZJtzBVcjV9sjcVpSoUZChkaT9WI0Ykl0mTWarG+sEXowJaQ9tVScOst5mxoAXDP99EptfPZQXlvZhuOZtfHZSZb9meXBTVgh9dLCCohn1miimV75wWuzh/Layh4a88wfvCZHo/npzTVCD6akMC/guqReQTEAPBO5mpIGcobj7WSnomUUvk4AYE9R3hcPzAuQqtFkXY1GQ2PeTnYqWppG3Xhf6MGUFLYtK2v3hH4RLtClFzvBLGdQxzNMPyUst0VWVf1mFYwL3O1HLVUjuvRiJ5ilMDTmGRPNlLDcFmkadbu0Qw+mxOjW8NbaePjnrO2ILBc6YYWUIla46WO6KtusBALrW7QTAL6mW/Ygq6E7xFnlbDNm2lP2saQ1p6K3lBK2DwxvffY1dRqxwk1LGnVKIKwH61u0pNH2AXuQ1dCVrtF7L9nHbi12pxEamApg+kt9fK5IfIDXI1qjn3RNcv+g9ZiJXO1ADvdRAuu11PMaTdb5NEIDUxFq47P7dcs+rbJ/c0HQt3Wzap7LWvzgtdn9Dw/0rkY8nksHNDAVggV+r9H/LHoukqhMQLdbWOC35zQS3U7HIG+FiFwtbk/ZDmviLproVRauxgGxe8m4AAv8vvdS72g0P03sLLk66MFUFNZhoBRndAQ4E7ma6MHBysA6DFRWo8l6do3Qg6kokau9AQAvZOnRXBAzcUCU9MouG5P16mo0Py1HIzzsWGHioHEVAN6m6+Qt28zBHHYwRKHr+MtJKzz++as7GklrrupLh665PH1XI+Nr5dfo5mJ4/K1DOxq3FuVohEukHkLCGSYV0PX7SEnquRSOhDNMKljSaK16LllBA9NjGI43qFv2s7plP1XgTgZ9UD+IA/JB0grnktZc6Su55cnQmDe4fcB+9uGB4jWanyYf3FoM524tqtEIDUwPY/opfXhPihYREoA+tITFh5AumGgWoxGLDykHDUwfwNL8v2045HFWvnGnhDdnzBqcf8KOHHyYc8fFnoKl+X9775gajdiRgw83O24gGzQwfYzppzY7APcYO2y33mG4BVa/pNOruRm5GhqTHJhoims0WS9eo/8fAAD//7BDnqfZ2hPbAAAAAElFTkSuQmCC;fontStyle=1" parent="1" vertex="1">
          <mxGeometry x="640" y="124.63" width="90" height="90" as="geometry" />
        </mxCell>
        <mxCell id="b7SMPCYk1F2Nh4VCUBtI-12" value="Container Registry" style="shape=image;verticalLabelPosition=bottom;labelBackgroundColor=default;verticalAlign=top;aspect=fixed;imageAspect=0;image=data:image/png,iVBORw0KGgoAAAANSUhEUgAAAt4AAAE0CAYAAAAbozQmAAAK3WlDQ1BJQ0MgUHJvZmlsZQAASImVlwdUU2kWgP/30kNCSwhFSuhNkE4AKSG00KWDqIQkkFBiSEHFhsrgCI4oKiJYRnRURMFGERtiwTYo9j4gg4CyDhZsqNkHLGFm9uzu2Zvz537nvvvf8s7/n3MfAORwjlicA6sDkCuSSWKC/elJySl03O8AC7THfy4crlTMjI4OB4hM6r/Kh3sAGtO37cZi/fvz/yqaPL6UCwCUinA6T8rNRbgNWcNcsUQGAOowYjddIBOP8R2EqRKkQIQHxjhzgr+Ocfo4o9XHfeJiWAibAYAncTiSTABIDoidns/NROKQohF2EPGEIoQLEfbhCjg8hJG8YHpu7vwxHkLYCvEXA0CmIsxI/1PMzL/ET1fG53AylTzR17jgA4RScQ5n0f/5av635ObIJ3NYIIskkITEIFoHeX8PsueHKVmUHhk1yULeuP84C+Qh8ZPMlbJSJpnHCQhT7s2JDJ/kDGEQWxlHxo6bZL40MHaSJfNjlLkyJCzmJHMkU3nl2fFKu4DPVsYvEMQlTnK+MCFykqXZsWFTPiylXSKPUdbPFwX7T+UNUvaeK/1Tv0K2cq9MEBei7J0zVT9fxJyKKU1S1sbjBwRO+cQr/cUyf2UucU600p+fE6y0S/NjlXtlyOGc2hutfIdZnNDoSQbhIBjQQTzIATIgARwQBIRABPgy/kLZWDOs+eJFEmGmQEZnIjeOT2eLuPbT6U4OTsjJG7u/E0fiHW38XkK0q1O2VbUAeJ9QKBQnp2yhNwE4kgYAsXHKZjUHAPV+AC6f4sol+RM29NgfBhCBGqACXWAITIEVsANOwA14AT8QCEJBFIgDyWAu4AIByEUqXwCWgBWgGJSC9WAzqAI7wW6wHxwCR0EzOAXOgUvgGrgJ7oLHoBv0gVdgGHwAoxAE4SAyRIF0ISPIHLKFnCAG5AMFQuFQDJQMpUGZkAiSQ0ugVVApVA5VQbugWugIdAI6B12BuqCHUA80CL2FvsAomARTYQPYAp4BM2AmHAbHwXPgTDgPLoCL4HVwJVwDH4Sb4HPwNfgu3A2/gkdQAKWCoqGMUXYoBoqFikKloDJQEtQyVAmqAlWDqke1ojpQt1HdqCHUZzQWTUHT0XZoL3QIOh7NReehl6HXoqvQ+9FN6Avo2+ge9DD6O4aM0cfYYjwxbEwSJhOzAFOMqcDsxTRiLmLuYvowH7BYLA1riXXHhmCTsVnYxdi12O3YBmwbtgvbix3B4XC6OFucNy4Kx8HJcMW4rbiDuLO4W7g+3Ce8Ct4I74QPwqfgRfiV+Ar8AfwZ/C18P36UoE4wJ3gSogg8wiJCGWEPoZVwg9BHGCVqEC2J3sQ4YhZxBbGSWE+8SHxCfKeiomKi4qEyS0WoUqhSqXJY5bJKj8pnkibJhsQipZLkpHWkfaQ20kPSOzKZbEH2I6eQZeR15FryefIz8idViqq9KluVp7pctVq1SfWW6ms1gpq5GlNtrlqBWoXaMbUbakPqBHULdZY6R32ZerX6CfX76iMaFA1HjSiNXI21Ggc0rmgMaOI0LTQDNXmaRZq7Nc9r9lJQFFMKi8KlrKLsoVyk9FGxVEsqm5pFLaUeonZSh7U0tVy0ErQWalVrndbqpqFoFjQ2LYdWRjtKu0f7om2gzdTma6/Rrte+pf1RZ5qOnw5fp0SnQeeuzhddum6gbrbuBt1m3ad6aD0bvVl6C/R26F3UG5pGneY1jTutZNrRaY/0YX0b/Rj9xfq79a/rjxgYGgQbiA22Gpw3GDKkGfoZZhluMjxjOGhEMfIxEhptMjpr9JKuRWfSc+iV9Av0YWN94xBjufEu407jURNLk3iTlSYNJk9NiaYM0wzTTabtpsNmRmYRZkvM6swemRPMGeYC8y3mHeYfLSwtEi1WWzRbDFjqWLItCyzrLJ9Yka18rfKsaqzuWGOtGdbZ1tutb9rANq42Aptqmxu2sK2brdB2u23XdMx0j+mi6TXT79uR7Jh2+XZ1dj32NPtw+5X2zfavZ5jNSJmxYUbHjO8Org45DnscHjtqOoY6rnRsdXzrZOPEdap2uuNMdg5yXu7c4vzGxdaF77LD5YErxTXCdbVru+s3N3c3iVu926C7mXua+zb3+wwqI5qxlnHZA+Ph77Hc45THZ083T5nnUc8/vOy8sr0OeA3MtJzJn7lnZq+3iTfHe5d3tw/dJ83nZ59uX2Nfjm+N73M/Uz+e316/fqY1M4t5kPna38Ff4t/o/5HlyVrKagtABQQHlAR0BmoGxgdWBT4LMgnKDKoLGg52DV4c3BaCCQkL2RByn23A5rJr2cOh7qFLQy+EkcJiw6rCnofbhEvCWyPgiNCIjRFPIs0jRZHNUSCKHbUx6mm0ZXRe9MlZ2FnRs6pnvYhxjFkS0xFLiZ0XeyD2Q5x/XFnc43ireHl8e4JaQmpCbcLHxIDE8sTupBlJS5OuJeslC5NbUnApCSl7U0ZmB87ePLsv1TW1OPXeHMs5C+dcmas3N2fu6Xlq8zjzjqVh0hLTDqR95URxajgj6ez0benDXBZ3C/cVz4+3iTfI9+aX8/szvDPKMwYyvTM3Zg4KfAUVgiEhS1glfJMVkrUz62N2VPa+bEVOYk5DLj43LfeESFOULbow33D+wvldYltxsbg7zzNvc96wJEyyVwpJ50hbZFRkULout5L/IO/J98mvzv+0IGHBsYUaC0ULry+yWbRmUX9BUMEvi9GLuYvblxgvWbGkZylz6a5l0LL0Ze3LTZcXLe8rDC7cv4K4InvFrysdVpavfL8qcVVrkUFRYVHvD8E/1BWrFkuK76/2Wr3zR/SPwh871ziv2brmewmv5GqpQ2lF6de13LVXf3L8qfInxbqMdZ1lbmU71mPXi9bf2+C7YX+5RnlBee/GiI1Nm+ibSja93zxv85UKl4qdW4hb5Fu6K8MrW7aabV2/9WuVoOputX91wzb9bWu2fdzO235rh9+O+p0GO0t3fvlZ+PODXcG7mmosaip2Y3fn736xJ2FPxy+MX2r36u0t3fttn2hf9/6Y/Rdq3WtrD+gfKKuD6+R1gwdTD948FHCopd6uflcDraH0MDgsP/zySNqRe0fDjrYfYxyrP25+fFsjpbGkCWpa1DTcLGjubklu6ToReqK91au18aT9yX2njE9Vn9Y6XXaGeKbojOJswdmRNnHb0LnMc73t89ofn086f+fCrAudF8MuXr4UdOl8B7Pj7GXvy6eueF45cZVxtfma27Wm667XG391/bWx062z6Yb7jZabHjdbu2Z2nbnle+vc7YDbl+6w71y7G3m36178vQf3U+93P+A9GHiY8/DNo/xHo48Ln2CelDxVf1rxTP9ZzW/WvzV0u3Wf7gnouf489vnjXm7vq9+lv3/tK3pBflHRb9RfO+A0cGowaPDmy9kv+16JX40OFf9D4x/bXlu9Pv6H3x/Xh5OG+95I3ijern2n+27fe5f37SPRI88+5H4Y/VjySffT/s+Mzx1fEr/0jy74ivta+c36W+v3sO9PFLkKhZgj4YyPAihkwRkZALzdh8zHyQBQkBmCOHtivh4XaOKbYJzAf+KJGXxc3ACoR9TYaMRqA+AwsiwKAVDzA2BsLIrzA7Czs3L9S6QZzk4TsUjIdIn5pFC8MwAA1wrAN4lCMbpdofi2Byn2IQBteRNz/ZgYIt8YszUA2uP4nXeyMvA3mZj5/9Tj3zUYq8AF/F3/E3YAIACiQRIdAAAAimVYSWZNTQAqAAAACAAEARoABQAAAAEAAAA+ARsABQAAAAEAAABGASgAAwAAAAEAAgAAh2kABAAAAAEAAABOAAAAAAAAAJAAAAABAAAAkAAAAAEAA5KGAAcAAAASAAAAeKACAAQAAAABAAAC3qADAAQAAAABAAABNAAAAABBU0NJSQAAAFNjcmVlbnNob3QRoZlyAAAACXBIWXMAABYlAAAWJQFJUiTwAAAB1mlUWHRYTUw6Y29tLmFkb2JlLnhtcAAAAAAAPHg6eG1wbWV0YSB4bWxuczp4PSJhZG9iZTpuczptZXRhLyIgeDp4bXB0az0iWE1QIENvcmUgNS40LjAiPgogICA8cmRmOlJERiB4bWxuczpyZGY9Imh0dHA6Ly93d3cudzMub3JnLzE5OTkvMDIvMjItcmRmLXN5bnRheC1ucyMiPgogICAgICA8cmRmOkRlc2NyaXB0aW9uIHJkZjphYm91dD0iIgogICAgICAgICAgICB4bWxuczpleGlmPSJodHRwOi8vbnMuYWRvYmUuY29tL2V4aWYvMS4wLyI+CiAgICAgICAgIDxleGlmOlBpeGVsWERpbWVuc2lvbj43MzQ8L2V4aWY6UGl4ZWxYRGltZW5zaW9uPgogICAgICAgICA8ZXhpZjpVc2VyQ29tbWVudD5TY3JlZW5zaG90PC9leGlmOlVzZXJDb21tZW50PgogICAgICAgICA8ZXhpZjpQaXhlbFlEaW1lbnNpb24+MzA4PC9leGlmOlBpeGVsWURpbWVuc2lvbj4KICAgICAgPC9yZGY6RGVzY3JpcHRpb24+CiAgIDwvcmRmOlJERj4KPC94OnhtcG1ldGE+CjEVv5QAAAAcaURPVAAAAAIAAAAAAAAAmgAAACgAAACaAAAAmgAAFf4NQfTHAAAVyklEQVR4AezdT4wcV50H8PKfjHE8xvY6a+PVRhvZIgIJspKzF2cP5mJz2D2A97JIBk5IsNeEc8KZ5Bqi5bQYiRvsAVbCvsSXeA9rJEIk2ESJQFgYRxsc4/G/weNs/drpmZpydXdVd/Xrrp5PSZa7aqrrvfd5r6u/VV1dve30v//ho8xEgAABAgQIECBAgMBUBbYJ3lP1tXECBAgQIECAAAECPQHB20AgQIAAAQIECBAgkEBA8E6ArAgCBAgQIECAAAECgrcxQIAAAQIECBAgQCCBgOCdAFkRBAgQIECAAAECBARvY4AAAQIECBAgQIBAAgHBOwGyIggQIECAAAECBAgI3sYAAQIECBAgQIAAgQQCgncCZEUQIECAAAECBAgQELyNAQIECBAgQIAAAQIJBATvBMiKIECAAAECBAgQICB4GwMECBAgQIAAAQIEEggI3gmQFUGAAAECBAgQIEBA8DYGCBAgQIAAAQIECCQQELwTICuCAAECBAgQIECAgOBtDBAgQIAAAQIECBBIICB4J0BWBAECBAgQIECAAAHB2xggQIAAAQIECBAgkEBA8E6ArAgCBAgQIECAAAECgrcxQIAAAQIECBAgQCCBgOCdAFkRBAgQIECAAAECBARvY4AAAQIECBAgQIBAAgHBOwGyIggQIECAAAECBAgI3sYAAQIECBAgQIAAgQQCgncCZEUQIECAAAECBAgQELyNAQIECBAgQIAAAQIJBATvBMiKIECAAAECBAgQICB4GwMECBAgQIAAAQIEEggI3gmQFUGAAAECBAgQIEBA8DYGCBAgQIAAAQIECCQQELwTICuCAAECBAgQIECAgOBtDBAgQIAAAQIECBBIICB4J0BWBAECBAgQIECAAAHB2xggQIAAAQIECBAgkEBA8E6ArAgCBAgQIECAAAECgrcxQIAAAQIECBAgQCCBgOCdAFkRBAgQIECAAAECBARvY4AAAQIECBAgQIBAAgHBOwGyIggQIECAAAECBAgI3sYAAQIECBAgQIAAgQQCgncCZEUQIECAAAECBAgQELyNAQIECBAgQIAAAQIJBATvBMiKIECAAAECBAgQICB4GwMECBAgQIAAAQIEEggI3gmQFUGAAAECBAgQIEBA8DYGCBAgQIAAAQIECCQQELwTICuCAAECBAgQIECAgOBtDBAgQIAAAQIECBBIICB4J0BWBAECBAgQIECAAAHB2xggQIAAAQIECBAgkEBA8E6ArAgCBAgQIECAAAECgrcxQIAAAQIECBAgQCCBgOCdAFkRBAgQIECAAAECBARvY4AAAQIECBAgQIBAAgHBOwGyIggQIECAAAECBAgI3sYAAQIECBAgQIAAgQQCgncCZEUQIECAAAECBAgQELyNAQIECBAgQIAAAQIJBATvBMiKIECAAAECBAgQICB4GwMECBAgQIAAAQIEEggI3gmQFUGAAAECBAgQIEBA8DYGCBAgQIAAAQIECCQQELwTICuCAAECBAgQIECAgOBtDBAgQIAAAQIECBBIICB4J0BWBAECBAgQIECAAAHB2xggQIAAAQIECBAgkEBA8E6ArAgCBAgQIECAAAECgrcxQIAAAQIECBAgQCCBgOCdAFkRBAgQIECAAAECBARvY4AAAQIECBAgQIBAAgHBOwGyIggQIECAAAECBAgI3sYAAQIECBAgQIAAgQQCgncCZEUQIECAAAECBAgQELyNAQIECBAgQIAAAQIJBATvBMiKIECAAAECBAgQICB4GwMECBAgQIAAAQIEEggI3gmQFUGAAAECBAgQIEBA8DYGCBAgQIAAAQIECCQQELwTICuCAAECBAgQIECAgOBtDBAgQIAAAQIECBBIICB4J0BWBAECBAgQIECAAAHB2xggQIAAAQIECBAgkEBA8E6ArAgCBAgQIECAAAECgrcxQIAAAQIECBAgQCCBgOCdAFkRBAgQIECAAAECBARvY4AAAQIECBAgQIBAAgHBOwGyIggQIECAAAECBAgI3sYAAQIECBAgQIAAgQQCgncCZEUQIECAAAECBAgQELyNAQIECBAgQIAAAQIJBATvBMjTKuLw8o7s0N4drWz+V1dXW9mOjRAgQIAAAQIECFQLCN7VLp1Y+tVn92Znjy+3Utcvfv9qK9uxEQIECBAgQIAAgWoBwbvapRNLBe9OdJNKEiBAgAABAgR6AoJ3hweC4N3hzlN1AgQIECBAYMsJCN4d7nLBu8Odp+oECBAgQIDAlhMQvDvc5YJ3hztP1QkQIECAAIEtJyB4d7jLBe8Od56qEyBAgAABAltOQPDucJcL3h3uPFUnQIAAAQIEtpyA4N3hLhe8O9x5qk6AAAECBAhsOQHBu8NdLnh3uPNUnQABAgQIENhyAoJ3h7tc8O5w56k6AQIECBAgsOUEBO8Od7ng3eHOU3UCBAgQIEBgywkI3h3ucsG7w52n6gQIECBAgMCWExC8O9zlgneHO0/VCRAgQIAAgS0nIHh3uMsF7w53nqoTIECAAAECW05A8O5wlwveHe48VSdAgAABAgS2nIDg3eEuF7w73HmqToAAAQIECGw5AcF7y3W5BhMgQIAAAQIECMxCQPCehboyCRAgQIAAAQIEtpyA4L3lulyDCRAgQIAAAQIEZiEgeJfUTz+9Ozu0vLO0tPnsm1fvZW9eXV1/4tnje9cfT/Lgwju3s2s313qbeObIUvbMkV2TbG79uT/8xc31xx4QIECAAAECBAi0LyB4l0y/+88H8zC7VFrafPaHv1jJzl3eCLM//8aR5hupeMa3f/rBeqD35coKIIsIECBAgAABAnMqIHiXOkbwLoGYJUCAAAECBAgQaEVA8C4xCt4lELMECBAgQIAAAQKtCAjeJUbBuwQyR7OH9+5Yv759jqqlKgQIECBAgACBWgKCd4lJ8C6BzMlsfOn1myf29a6b/8lbt+akVqpBgAABAgQIEKgvIHiXrATvEsgczMaZ7u+d+etsz9K2Xm3ibjEvX/zQ2e856BtVIECAAAECBOoLCN4lK8G7BDIHs1V9cmv1o+y1Szey82/fmYMaqgIBAgQIECBAYLSA4F0yqgp5pVVqzbqdYC2mkSvFJSbPn9w/cL1zl1cy9yAfyOMPBAgQIECAwBwJCN6lzhC8SyAznF1e2p794CuH1i8xGVSVC/lZ77j0xESAAAECBAgQmGcBwbvUO4J3CWSGs9868cnsS5/bU6sGwnctJisRIECAAAECMxQQvEv4gncJZEaz8YXKH/zroUalC9+NuKxMgAABAgQIJBYQvEvggncJZEazX312b3b2+HLj0oXvxmSeQIAAAQIECCQSELxL0IJ3CWRGsz/++qdGXts9qGqvXfpz5l7fg3QsJ0CAAAECBGYlIHiX5AXvEsgMZp976hPZi6cOTFTyv/34/7J3P/jLRNvwZAIECBAgQIBAmwKCd0lT8C6BzGD2hS/sz059evdEJUfojvBtIkCAAAECBAjMi4DgXeoJwbsEMoPZSS4zKVa3fC/14t88Hixw7OBj2dGDO3srvPfBfZ8cDKbq1F/i9pzRr88c2ZW9efVeFn27svqgU21QWQIECHRdQPDueg8uWP0j9L165olWWhW/bvm1H70vXNTUjGD2/Ml9WVzqU5ze+O3d7JWLNzgWUTr2OPr0hfyHqPYsbVuv+bWVtezl1z/MQ/jq+jIPCExD4MDu7dnSjm1Z7JMd7E1DeLbbPLy8o1eB63ceZKtrH822Mh0oXfDuQCdtpSqO+qXKphbOetcXG/ZpT4Szb//0g/obs+bcCDxzZCmLvh00+T7EIBnLJxX4zKHHep+wLD3MZb3NRTiLg/n439RdgTiQin1L9HFx+v2NtexS3r8CeFFl82PBe7OHuRkLjHsbwUHVdtZ7kMzm5XW+0OpuMZvNujI36tKtS7+7m710/npXmqOeHRGIQPYPf7ursrara1n2X7++7ex3pU43Fp48tjt7cl/hiKpQ7Tio+lnev6Zqgc4G7zgzeurpx6tb1XBp8Uxe/Fri0fxyh0mnC2/fzs7nP2Xen4adceqvU+f/CD/9u3V0zaBO+4adda3z/Kp1Xsl/Tr7YF1XrbPVldQ54/vOtW9n38vFn6o5A3R+i+uL3r3anUWo69wJxNjR+dbh4prtc6Sv5mdHX3914jyz/3fz8CsR+ZdQNEP7nyr3sN++7s1hVL3Y2eNcJClUNrlpWfNNpK/iVL3H4+TeOVBXdeFkcJPSvyeyaQZ3GtuVfLOvCO3d617IWl3m8WaDOWHK5yWazLsyNusyk34biPrC/zP8ExhWoE8xi2/E+aeqeQOxX4t+wKb5DEj9oZ3pUQPDOTYpvOm0FP8H74U713OWbj466IUvaOkApFhGXm5z5jz8WF3lcEhC8SyALMit4L0hHdqwZdYJZNEnw7ljHflzdU/kVB/0vVA5qgeA9SCbLBO/cRvBOYzB4GG78ZRrBO7buC2QbxlWPBO8qle4vE7y734ddbIHg3cVeq19nwbu+VdWagneuIninMagagOVl0wre5y6v9O5dHLcr3JPfNm9517YsHhenuHZ+5d7DWyHF41v5PY77l/UU11vEx4L3IvZq1vs4OD7FGzUV94Gj1vV3AqMEBO9RQt3+u+A9Wf8J3rlf8U3HpSZZ79ZjseOcdCpfblNne9MK3nXKHrROhPAI4HELrEUN4oL3oN7v9nJnvLvdf12tveDd1Z6rV2/Bu57ToLUE71xG8E5jMGgQFpfPY/Au1i+uW4vr1hftSyOCd7GXF+ex4L04fdmllgjeXeqt5nUVvJubFZ8heOcagncag+LAG/S4rU8cBm2/reURwOPWjnEWfBEmwXsRevHRNgjej5pYMn0BwXv6xrMsQfCeTF/wzv0E7zQGdYbqS6cPZCf+bvNPltd53qzWWZSfUxe8ZzWCpluu4D1dX1uvFhC8q10WZangPVlPCt65n+CdxqDOUK0TAOtsJ+U6cbvCuL96/4eNUpbdVll13N3Huy3tdNsRvNNZK2lDQPDesFjER4L3ZL0qeOd+gncagzpDtW5QqLOtVOssws/SC96pRkvacuq+nor7wLQ1VNoiCgjei9irG20SvDcsxnkkeOdqxTedtq4xLt/Ro60vDS76L1fGIG7LapwXxDjPKff1ONuY9XME71n3wHTKF7yn42qrwwUE7+E+Xf+r4D1ZDwreuZ/gncag7lB94Qv7s1Of3l139ZmutwhnuwNQ8J7pMJpa4YL31GhteIiA4D0EZwH+JHhP1omCd+4neKcxqDtUn3vqE9mLpw7UXX2m6y3C2e4AFLxnOoymVrjgPTVaGx4iIHgPwVmAPwnek3Wi4J37Cd5pDJoM1XNfOZQdWt7R5CnJ112Us90BJ3gnHz5JChS8kzArpCQgeJdAFmxW8J6sQwXv3E/wTmPQZKiefnp39vzJ/U2eknzd71y47j7eydUV2ERA8G6iZd22BATvtiTnczuC92T90tngHcHs1NOPT9b6j58dX1jsT9868cns6MHH+rNj/3/h7dvZ+bfvrD8/vrTZxhQ/2tK/bV3XDJq2f57Pel/63d3spfPXmzZpbtd3xntuu2aiigneE/F58pgCgveYcB15muA9WUd1NnhP1mzPnneB2HF/Mz8IOtbCQVDbbV2kS0z6NoJ3X2Kx/he8F6s/u9KaaQfvA7u3Z39Zy7KV1QddIVmoegrek3Wn4D2Zn2e3KHB4747sufxXK7/8+T3Z4Tm+vrt4S8cWm19rU2EUb2qHl3dmf/83S+vP2bO0LYsDgv70yz+s5vMPsjfyM/PXbubvUCOmeQneD9+wd2WfytsZbe1Pxfat3HuQf+pzv/fJz6+urnbmzTcOIqN9e5a2D+y76Ks/5v+urdzP4geL6vRd36jq/yivzqdtxcvtqrbT1rLlvO1f+tyeXvv7fXo+/3TwQuHTwbbKqtpOf3wt79q26aA+xlrfuj++2uqDqnqUl4XL2WeXe3UKl/fy8f2Tt26tf7pZXr9qPrZx4qldvX3DsYM7s+Vd23urFdsWC/rti09Op/X6eei8sX+qqm8siy+nD5vi0+e/ykP2gcc/bkvF+8Jqvnu7fufhPi76cCXfD76Xt20WU9R3Oe+/eI1HnaIfV9c29suzqFOU2a/X0o5tvf3lpPVqO3g/uX9nFgdT4RavzahnzJeneI/7050H2fXba7nvg95rdh58y/UcNS94jxLy96kIxJvE0fzNIcJIL5DkIXKew3Yf4ZWLH266hKi/fJr/h0/s6OJuL+MYXVtZy97Mg3gEnAhzVdOsgnc/LMQBV7RvnCkCRAS3ugcZ45Qx7nNO5O36x7xd0bYIVE2n6Ls3fnu3929Q3w3b5jwF76hL3Cq0agxH/72cv7bantoYX9EH5//3Tnbhndvr4bzNesbrOw6OqsbHqP1NhOov5wcyYRvbGWeK10+E/DYPfiYJ3hG4oi0RFpc2jr0bNS3C+O8/vJ/95v3VXkBr9OQxVo6gePLYo/vnqEdclhh1mcUUlrHvKYfYqNflK/caHdgV699G8I7X5mcOPZZF6K4a+8XyBj3u9/OVG/dnZjyobsOWz0XwbvNa5WGN9bfZCsSbRNWb7mxrVb/0UW+C9bdUb80IbWfys//xJtbWFCHi3OWbj7zJpg7e/cBwOv+exrg73SqTCA9NzxRWbWfSZfHGFKZtjvcI3tF3TQJ4jJ1Zn/GON9g4mxsBcdgU31+JvmtjijLjzHq8ftocX+P0wbD2RD1f/ZcnBo6TOMMXn7D1v9fT31b0a4yvtvcN38m/t1Iuq19mk/+jXnXqVjzjHQEsnlMOiU3KrVo3DKNNTV43VdsZtmxUEP3Zr28nOQAo1/GfPvv4UM9x6zWqvVGPeK+pOpiLA6rP5oF7Gv38y3wfOatPO8r2w+bnInjHG0OdF+mwhvgbgWkJxI77pfN/muqOu1j3ONsT17dP8zURO8UIOnE2NaaUwfvs8b15ecvFJrf+OHb40b7U14BGnw06q9tWIyNERNvqBImozyyDd5xteyG/O1Gd8Btj8ms/en9ipgj4MZ7rlDluYfG6ee2//zzxGfDwGfWbBcXfCkixb2jjUroYd3X2X9G2OFt8Ind4ct+Yp7drdmJcmnDx3but7xPiJMKoH3y7cmMte/3djZst1KzyRKvFgczJo8M/RRy3XuME70GfCkzUyIonx/t1WEd/z+s0F8H71TNPjP0x2bzCqtdiCMTHhC+/fqP1nfUgnRShtFh2BIhXLt7oXVd/9vjwMBxBr3gHoOJ26jyO0PDi6QMDz+7V2UaTdWIHHJcv9A8umjy36bpx5jIOluINKdV07vJKfo3szaHFzSp4h8fzJ/c1vnxokmvNY3xFmfF/iinG12uXbkx06VmTA95U+4Y2DoDqBu8L79zpfa9nmgdJxbEw6SUWxW31H9dpa4yVtj7N6Zc76v869YpwGme9m05Ng3ccBMQnuONeOtS0ftPo56Z1GLb+/wMAAP//AiL8uAAAJ5RJREFU7Z1NzB1Xecev46/4Ix92qBOioCBHIJBCLIUusLtINnYXsAhBKiAloLaqlLAlZYvZEncLUbsiRmpBIkFVQKq9iTf2hlQyIAWoYgUlSoiBxMbOh9/YTud/3x53cj0fzzkzZ2aee38j2XPfe2fOec7vOTPzP888c2bDoX997YPZyMt//dNHR7aA6iHwYQJnL16Zff/UX2YnX37vwz9k+mvnlhtm3z60a3bfR7dkqqG+2DeKtr70p/dnBz5+Y/1GxS+/fH1t9s/P/blxm7ofD31y2+ybD9xa93PW75/99duzpwpf5lruuW1z0bZbZloPvcgnR06cm71x4Upl1epPT37htsrfyl/+7b+9Xv6z02f1oycKX+/YsiG6nFQ71L8e239LUp3RRi7scPx3787718W1qwu/tP/56Gdvmj1y/87GDXV8Xrx0ddD+9Y1n/jR76c/vN9rV9KP63Rjnsiabyr+9cv7K7FRxbl+70l3+WNv6w/++WDYh++ecdh0sjrfbd25sbIP67YmX3pvtL84HH7uledvGgjr8+NKfL89O/X6Ya3iMmRsQ3jG42HbZCUjIHP/dO7NjxcV0qGVM4RbTxlTh/dj+m2dfvHdHTFW9byvbv3PsrVmKOGoyRr6TsE0RmU3lxvz29toHs8ef+WOl+NbFdyjhfftNG2ePfe7m1gFcXdvOFBdJtSN2GXNQF2yVSP3Wc29G9y+L8A51DLnWAFvHTOpiFX2p5fex31vvXp397MV3OhdlbesqCu8tGzfMdm27oTPjLgXIzxoc9zHI6mJHeV+Ed5kGn1eSgC4wimyfLEbGdZHDXGCmINysbUsR3op8KjoyhSVVHNXZPiXfqW2KUi4uQwlvDawkIrsMQFLE3uPFoO6hkQd1gXlK/5qq8P7af5ztdC60itHAbqz1b86+P/vFq5c6VW9t66oJ705Qe955rbgh+PNikNV34CXVzNGF9+ZiRPTcP9yRaj/7QaCSgKKAuhAuLmeK7y4Wv71x4XLxu/5dv83iPrn+VnrJ01/d00ms5LKtqtxY4T0lURTaowHWd46/Ff5MXk9JdIdGVAnX3MJbUW4NrlRP6qJj9alT56PvMk0h0r3Y5roB0OJ24e8pCu/Y4zy0pby2itHyPmN9PnHmvdkr5y4nV29tK8I7DvH7hVhWlLrLYL5cY193OMplpn4eXXhv3bRh9p9/j/BOdSD7VRP4lyLvdch0kWor6r+V6P7uF3Z3ytvUrXmN4JVLFyL1QQCFdb0F8b/EXJC7iqLywEn1arnntk3FSfiG2R2F2NvTkl/Y1LqfFjnfyt9PXSQ2v//wX3W6IATfhYGgbJHP1C/2Fu1MWZTHrnz28qIyc6Wa9BHlVv7lkefPR0eilEf+7YO7yk2N/qx+VT52VIB4de1fuq2tvHvLkkt4h2Mm9K+dRb793v97BqHp3KDjTgO4rgEJ1dFUj4WNtpH4euX85fn5LUQrw7lOKQxbCv2gdAblG3/sVp0f4p8r6BoNtbYV4V3vdfW7F8+uzSSO1y5/MF+Xt9Z5ccfWdV9/as/m1vzy8r7lz33c4SiXl/oZ4Z1Kjv0mS0AH8cM/+MNk7ZNhqSkYEmzHihz0trQYnagOfHzrPN92/93ND01aQVmFt6LB33v4I9Zir20nv6ld87SflodaVYfEvQRYigjvMjBT21R/7CJ+en7g5MuXGoVm8N3BT26PEi+K5C8+DCxR0Lfw7ivKLXG6aK+FaZeBz/H/eXd27LfvtOYvq45DBX8NLlLEXNUgqKptfQpvDWLWj532/nXfnVvmx86B4twQ2qf9j75wsbPoVjutYrSKib7TgEjnutgBgMS3/u3dHTd47RINtbYV4X29t18tHnKVj2PvOOgcKQGu8/DmyOc2u97huL4V8d+MLrw3FXn3P/tHZjWJdx171BHQCe7oCxfqfh79+5RoXZdZViQilPbRVYBbhbfSZ9qeeF90gqLQuuiHqNbi701/p0ZeU/JYU4SSuKk/ah276KKuOrVuW6pmotB+fQrvR+6/qbCneRaONjtTo9yh3JSBj84Jz/7q7ej+pQv8Fz+zI0mAV6X+hDaEdUp/CvuGdZf+Fcroe20Vo4v1KsJ9+vVLM0Umuyw65z24d1uUKDv1+0vRQl82WtuK8P5/j8rPCiBpwNNl0d0OXU/vipg1RXc4dL0Z82HL0YW3oDOdYJeux75lAoqafu3fz0ZfYMtl5PysC3lsXndfAwldIA4f2n0twhXbTovwjhUSimodPv7mtVSZWJvC9uL62IGbZwc/YX+QU9HPI8/bUgJUjy7mT39lT6iyda2+mJK7XFVwG9e69Jm+hLciS12nTNTg8cmCd8oAJDDRIEuz5FgX9S9F1mMjp4vlp/SvHMdL2a4++1e53D4+W8VouS6JME0/lzL4LpcTPseKMvFcTNUKZTWtrW1FeK9TlJ/7nmXE6oPgR91RkQ1jLQjvschTbxYCdQIkS2UJhcY8cJjjwirxePjg7qQ84jYhEStMu0Y+q/C3CdTFfSxRybCPIsc6wVsW+a6PXNlyXar78WKu6sUccA0gnjr5l0rBon26Rrz7iHJ3uaMRGMQOWnP0ryceLGbpiRjcVaX/hPZoHdtfw745+lcou491rBBSezS1X99RSIlvzapkndIuJeptbSvCezY78+blpPQyS5+Mvcuh82Z4XsBSfp/bILz7pElZoxNISR8YyuhY4VCVOtCHrbJDYmxRwLWV3Sa8Y0SJRNHhYl7tHEvMg51tbQr2KeJrzVuXiKibVzuU12WtC/2+O7fOi1BOb1M0t4vw1r6KLqfks4f29RHlDmXFiNTYuxmhDss6pp8rsqY7cHVLTJtCGbn7V6iny9oqRlVHX2kHdfbqfPf5T283pZ2kCENrW1ddeA8RZda5av/d6+fGuv4Qvh/CnlDX4noSwvtokROa8oDUYmP4e7UJ5LzY9kE25iLb5eE/i606QUl8hwerLPs0idSYQYVu/ysa3Nct5SrbY8SRJeodU16uAVNVO9u+SxHe8uUjRR630jq6LH1Eucv1P/P1O0z9dWr9q+lYjjknBBZT6l/BpsW1VYxqP51X9C/nogcuH9jb/pC58n9/fDruDZPWtq6y8NbgSnc0cp7zQ/9Rzrf14VrZ1DXPPNQbs56E8I65hRvTOLZdHQIeokDWhw5zRoPLPcIqysI+TcI7Jvd2KOGgKf8sUf22AZuE6E++fnvA0Li2zmbRWEiPP1p9HF7Vru01yIh9OLZscl951eUyrXcxhjwPWK9buiOhPl+1xArvqfWvqjbpO6sYlSBTXnXfKSZVdn15305T1Ds2BcHa1lUW3kPOJKL0It3hsASVxppecBLC+/ChXZ1nXKg60PhudQjopDblmUysAmhI4aDeYRUP2rZJeFtnmhjST1bmbekAVtEnwZnyynOxzbVYGXzpB2/0EuXO5V/rNSJX/VX+UU6pdT73uhS4GOGttJ1HG9JWqmwc6zurGB1S+Pz1XVvnU9C1MYmNwFvbqr455JLTLuXNWwfnY6R0WO9w6Hqb8kBtVz9OQnjHnHy6Npj9l4+ADp4pz2Qi4tY+PqRwkF1WYaZt64S3NSI8hp+sA4umKLxV9FlSVsRxyMXqX10crRfSKvtzRLnL9VhmvlL/Gnr+fuvD0nXpJtbzgli0PahZ5jX2Z6vo0+vau04daG2rzlMP3bu9dfPYPG9rW1dVeKc8sNrqJMMGugtriXqPkW4yCeFtjSgZWLPJChLwcPvVKgAVeRwiD67cTawpGXXC2zov+Rgzzlhta+pDltziKUa75WOr8C73h5jPIWKU826TtQ1j9C/rTD516UxW4e0p2h36nfzWtsSmdbSV1/a7Jd0kNkKL8K6nrlSiH0XmzNeXFvdLrjsccVZUbz0J4W09sVY3gW9XmYCXC5IlYjeWeLPmZ9cJb6t4aIoq5+zDFuFc1zarsBr6ToWVV85zq469J4qHZHNPyWXtn5qX9w8Xiiv9wMvDxQt22iJrdXne1mNnjEFFF4xWMfrTXw/zwF1oizVFIiY6bW1rTJnB3i7rnHZZOcbePejS3sV9c93hWKwn5e9JCG8ZbhEmKQ1kn+Um4OH2q1W8NUVdc3rRal+dOLWkYoyRBhCYWWYkqRNGVuE61qAitLFubbW/bv+m7+XTvucqr6rPms5Rte+UvgsPsJZtsgrvKaYxldux+Dmn6FusK+Zvq2CMEclTbWtOu6wch76jsdgX9JBl2xzumtVE6SZDLpMR3tbb3UPCoa5pExhq9o+uFKziZ8yLa5eosCWNpk60d2Vr2d8qbqqEkTXaWrWvxbbc21j7XqodQ4hvS/9KtX/I/aoesOzSN4e0PbaunKIv1pby9tb0A4R3mdr1n63Ce4z86bK1Vjtj/F0uP/XzZIS3JSqV2kj2Wz4CuuBP/YHKQN0qfqouzKGM3GuLuKkTz5YZTXRiy5kH3MTHyr9KPFuE0ZjR/KZ26zdr29vKafpdObHf+Mmfsj2bYOmbTfZN5beqgbWlf8n+qr45lXZV2TFV4Z3DrhxlVjGN/S6nXVMVtIuMcgy0FutI+XsywpsHLFPct7r71M0SMEUi1r495sXVIm7qhLclTcyD8K4a+FiEUR2XKfRFXXzl29yLUnW+9dybWcS3pW/mbl8f5acK77Ge/ejS5pyib2p2rVJbA3svwnuqvpmM8LbmmQbHs15dAlMWOlVesYg37YfwrqLX/Tur+EwVRlPuj9a2d6dcP91k17JXXXhPuX/V+XaqgieHXTnKrOMa831OuyzCO3Z2mJi2Wbe1zuc9dErMZIS3QPLqeGt3Wt3tdFtfLynJPZNCn4R1ArREHb0Kb0t+uIeId9UDkpZB0zKmmmgWjWeKf4cP7ja9/TMcL5pZ5MiJc+HPXtbLIryrpgq19C+Edy/daF5IDjGao8w+WpzTLovwHuOhxUVun9qzeaZ0k7blx6eHeXtqsGNSwntZnl4PcFn3T8BTiklovVV4Vwm/UEbutSVPu24uYoswqts3d7tUfpdUH4swUh1jDppUf91i7Xthf00R+OTz5+YvS9J3uhNpfTtjKKPvqe8s/SvUPdV13YPglv6F8O7PqznEaI4y+2hxTrtylt1H20MZU7VzUsLb+rKLAJX1ahEYU7x1Ia2D3xLxHnNqxC552hZhNKZ4sIgb+bdKPFvPSVVpKl36TF/7Wvue6pNgPvrCxevytO+5bfO8/7bNVV22uc8BsmW6ynLdU/uswczjNQ+fWvrmmMdOKsupCp4cduUoM5V7eb+cduUsu9yGrp91/t67e1NrMSs7q0kgY7ltHbZlvToE9ICRxM3Qb3Xsi7BF2I41sLCKyzoxZb1TVXWrvS++TeVYovl1D7DpAjP1QVNT2632tw0crOWUbelrIGkRp+V6p/JZgvlM8dBp1WAm2GhpG8I70Oq+ziEYrWUO/bIgq10potNatq5pY6aFWlJixni75qQi3jqsmFaw+8ll2UpQDq2EgWZO8LpYnl/QwyiaInHoxSqc68SZda7rOuGes73Wh7brUgH09rOffP32VhOnKo50gbQMHKqi/YuNtqbshP36Om6t9Y7Rv0JbU9cI74up6JL2swrGGDFqLXNoEWq1K6atAbrOqwc/sS38Wbs+cea92SvnLtf+nvsHXZva7tSN8RDo5IS3bmsqQsUCgUCgr8hZKG+MtfV2eZ24zWWzhOX3vvSR2e07N7ZWUSfOrMfsGOLUImzU8Ka3hlpf7lU1HWEr1Mwb9Cm8Zap1kBWa1Yf4tg6exhq4hramrC39c4zjJqUt5X1yir5yPbGfc9hlfYBvaBH64D3bZnfd0n5eTxHeWzZumP3dvh2t+F89f2X2/Evvtm6XYwPr4EDHl/4NuUxOeKvx1gvdkKCoaxwCfT+oNU4r7IJl6Ius5cIvZm12WVPEhhxYaFDx9Ff3tEY81L6mB1utdwTGShWS/XVL38Jb9cTelexjjm/LHSPZ5i3qbTn+2o49tXtqSw6B20cbc9g1VYFnSbMQ0xThrf0s0WRtN3SKjerUYs3vPvX7S4PfTZ+k8LbeWlzHy//LSmCKQiaVtTVqp/KHivDHCNM2QWMVY0OKCIuoEW89/PZoQ4qPNaKvsqYW9c4hvNVOq7+1rZau4ts6+PEW9bb00SGPmXVvdf8/h8DtbtX6m1xlW9sSI0at0d+hp9d75P6dbc2c/x7T1nKBVmGr/qt/Qy5Wn8imMQYGkxTeMYJgSGdS13AEvD9MWUXKmm4i8ZDzFdzBticeuHWmqIhlaXsw0vqApupqSuuw2GLZJmYmDstdFWvEtavAtLQtZptcwlvnaOWO772tfcaAYO/Jl9+bDyrD3zHrmMHPEP0rxvambRHe/nO85d8v79s529ye1TGYyNPx+dC925u63rXfUoW39eU0Sjd7tpgxacjFOvAbejAUGExSeMs4ywkpNIL1chFYRtEtD8WIUwk4pT/kWmJyda13HqziVG3KmXISO3C3RKljzkc5XiKT2g9yCW/ZkyK+u7CxTFsZOLXdoQnbjb229Csi3v15ySrIYsWoNZ/6N2ffn/3i1Uv9NaimJGs0WrvHtrVcpXXAMVS7ZduubTfMPv9p26BDvpBtQy+TFd6xF8+hwVFfHgIaHWtmD6/TBrZRiRGnXURKkx2xqVwWYar6Ysrt46G7qjbqvPHdL+yeKUJqWayDitjzUS7fSTgc+uT2+YttLl66Or+F2xRNyim8xVcpVLEv2NGF/ugLFyzu+dA21raEnXKJb4ka2aI+dvq1tZlmxNFAOWVBeC9HxFt9Yf/d7W9IXLuyPl/+2pUPUrqLaR+dq6zRbhXYRXjrrZB6uNSyDPFwqVJMJLrbZjKRvZpGUOfOnL6o4zJZ4S2DLSeluobxvT8CucTYlEjERL1ld9+pC4/cf1NxXNly/1S/VZhqWy0xD0bL30+dOj87VrxmvI9FF79vH9plmqEl1GcdVGj72PORxLfSHvoYROpi+s0HbpnfNQm2h3VTH7GK1boZa0IdTWtxVzTacrEL5aSK4piot+pKrSfYWV5rkKH0LDFdXFLTWyx9ioj3Iu30v+W7Kv8tlhgrRmNyinOmN8gOpQ8q6mtdYttaLjdG5GvQ8fMX3+nlfFi2ofx5/903FgNiW/rbGLnnwdZJC+/YKFNoFGt/BFZBdAevWHO9w/bK+T5Seo13+D5mLdHw2OdurhRudeXIJ7F3H6xCr1ynog4/rHhjYnmbts9KnZGIiRF/KZHXmIGFbJbvJMqU35y6WAYUdfnTVn90Ed5ql7WeMoOUdKOYh5RDXX0MgDRgluhu6l8p7UF4L0fEW33Nmm6ibV8qXginOyV9L9aZTMr1dhHeKicmrUXXFE0vqMFHn4sGHJ8tou9W0T1mtFvtnrTwloExuajansUfgVUS3fJOyu157acRum7Ra21dVNejRZTb+hBludzUaKF1BopyXeoDz/zq7flry2MixGqXxItlHvJyfanPEUgEp7xnQD47cuJc1FvcYn1XFb23CuKuwltsY1KNtH3qcW8Rqyq/vKT2L/FTfVq3LfKxxHfMYmlLSrkxNuTYVrwszLqKvljbc9ql49XyUplgs3KL5ds+Uh0kPPcXg8OPGebtDvWHdVcfqG7pNMvDpapTke8Xitzq1PSsYHdYK0D7wD03RkX5x8rtDjZPXnjL0NgoU2gc6+kTSBVA029Zs4WxKSfl0hRFVYRT+aVvr63n+YbfJQwVldNaolTrlCU2xWSxji7HrNp2sogG6VXDamt45bBOsJpFY0ex/pviIiOGTRHIRZvC36mCL+zfJRgQfKc2yo7yxUcXbg0g7vvo1qJtit7E+a4q4iqhofSMtqUP4a06LEKybIsYPP7MH6/5uPxb0+fYlJNyWWIvwSP2WpcX+WDv7s2zfXeuC8cYH8i3sW+etfBCeJc91O1zTuEty2Ijzur/4VyX2jLlWOucscUwq0pVHV2Ft8qMHXRonz4GHppZReklMW0f86U+arcWF8JbJ7+UKNN6E/l/qgRWVXQHf1guumHbIdd9+EUnYonvFGGcu62pkfyyXbHzWJf3zfV5CsJbbYtl05SjXsdKgzCJ75jpDOvK6ut7HTcaRMQslnMAwjuGaPO2uYW3cqv18LM1+husfaV4w6Nerf5q8c8SAVf/v+vWjfPBeUw+d6ivvO5DeKs86xs8y3Xrs9JufnN2zZx+ogi7jvtP79kSfX3RQOdnRZ65hfGinX3+7UJ4q8GWE1SfYCgrLwFdTL5z7K2sD1rkbUE/pceKlH5qrS+lD9EdSteAWeJoSuK7D9Ed2hebqx/2y7WuiloPHfEObYtlI/EdO33m1PqXcnYPF+e0mMVyXUN4xxBt3ja38Fbt6peWGU7qLNWdk7feuToXhxKI+rxr+w1FVHfD/J+CGl3FdrnuvoS3yozJcy/boM/K+9bdzXmbi89rlz+Yf1a7Q/t3bd+YlE6j8pXXfex375gFvvbJtbgR3gLQ5fZ1LoCUG0/A8sKS+FL97jEV8d2n6A7emJI46lN0q32KOj3x4C3zW52hvWOt62bVGEt4p0Sk69rQxHRK/UsDh3LqUJPd4TeE9/I8XBl8qnXMNHvl/cb43Kfwlki2Tuc3dFvHeDV8XRtdCe8pnWTrgPJ9PQHd5ulz+rj6mvz9YrkA52xVzjsQOm4VAd1T5C+PseTud2MPnJoGsmMJb/k5VnynRL1T6um7D3bpX5bjnoh3fx4bIuIdrJUA7TMyHcrte92n8JZtqek2fberXN6QL/Ap11v32ZXwViO6PJRWB4Hv8xM4W9w+023Y2IhQfsumU4P6dtuUZTms1Yk35YUmMbaMFR1WFF+zieTud10euIzhWN5Wgk9t08OCdcuYwls2xQZLqtJl6tpW/l7967EDN0fNKlHeP/Vz1/6F8F7OiLf6k/qkxHdsvndqX0zdr2/hLTsU+dZMI7GzTaW2oW4/pZfo4VXlz09pcSe8BS9lurIpQV81W3JGU5eNpfL36l7S0XdbNRh6suP84LE2SaBKbAyR961I8NGO84PHtE8iU74b4oE/Cb7Dx99snQ1E/enpr+xpbUaq4G0tuNggRnx3tWPIwatm/nnqZLcXJFkGbCm54xa/5NxmyMhyTDuGtmtMAaqBueU8m0N4B59YeYft+1wrZ/zES+9N8jkyl8Jbzhn79m6fHWRZy9KBr0hq0yutl7XtXdslAaEBZo70DPlFPskd5a5jkDs6qYGe8oVzR7nr2icx9fBndmTxnQZL8lvM2z6PfnVPoy1DCDvLncq+7FD/0ttZHyr8kGNR/5IPtO66aFDSNmNXSu57V7u67q8Bn2VO65yir6oNmn7ugb03Vv107TtFSX90ut9IfOqMH9eMivgQorxK+ZDwbVr0IKdeMJVzUV94cO+2QSP/Z968PPvFK5dGn72kjqtb4a0GIb7r3Dr+97ooxb4wZHyrp2eBXkpysJiequ0EarFcok2C7dniRTUxL6mxlJ2yjU7Iin4fKOZhtURm2upQBPLYb9/pRRC11WX5Xb774r07e4mA63g6XjyRHyO4g43qO3VzeWsQljKPdig7Zt30gh3ZoekQ+xwsqX9pajfV28cAVv1Lx06fNopf0x1c3dmInaIwxie5ttXg56F7tzcWP8Z8ypb0j1x2SQhrAJoz71u2K/VMM4OoHqW6NC06r/QxgGyqQ7+J+33F3Ph7d9te595WXt3vOo/o5ThTSy1ZtNe18FZjEN+LLh3/7yFyhsdv5bAWSERIoK6/2GOrWaiGE6tOxn0Lhj4J6IK0b/62u61moaqBxGldOF67VFxsLk1iMFHFJAjAmNuuuoAoN1FtUxvDS4Sqyrd8J/H52P5bPtRvxG/o5y7GsiO1f+m4We9ja1n7V5X41h2AI8+fz1qvpe+kbtPW3zWfct+vDrfY2hR9VrRYduUKTCj1RFF3paP1mf8swS2xuXiOb5reT+eYoee0ziXA1RZd6xbbb+kPY2zjXngLGtMMjtF1rq9THX/MW/zXW7S83+gEFnKJ7yhE+e03bZpdvHT12olHtxC7irUx6ekWfIiC77tz69wUnVTVRi1DRGnmFWX4T0I8XHTVzp1bb5j7LbRNUc4cF/7QZ1SnWI7FMLRffj1dDCzGsGOxf5WPHV3Ex7iAi4sGn1r0UpExbOi7u0vk7iveqlh+wDAMKsc8P1XZpUGABlpDDQbKx2M418XwF8cXixfPvHruSu35QkJfAyC1t7zo+nBqxGBFGIBoEHJXwmvu1Ra1Pww2hvJZmWGXz0shvNWBx3iivQv4Zdo3Je90mdpPWyAAAQhAoJ6ABhUSWxrgTEkkyS4telnLmHYpLWTLpg3XBuS7ixfFaLAibRMG4eGlOrIzlqPYh5fQqJxQZr3Hhv1FfhADtVd2Vi0S2mp3+QVDVdt5+G4phHcAbXlCPGzLujsBHQhjPqTXvQWUAAEIQAACEIAABIYjsFTCW9h0W+Xwod3XblMPh3K1aupjKq3VIkZrIQABCEAAAhBYdQJLJ7zlUOXvDTWf7qp1IAluTaU1Zn7eqjGnvRCAAAQgAAEILAeBpRTewTWaqkzpJykPLoQyWK8/xKCUkqlMQ4dPIAABCEAAAhCAgEcCSy285RAl7Q/1JkCPHaDJ5qnN+9xkK79BAAIQgAAEIACBqRNYeuEdHKB5XCXAiX4HIvVrpZNoWiX9Y4EABCAAAQhAAAIQ6IfAyghv4dJUNQc+vnX+trw+3mTWjwumUYrmDj5WvBlPr4+d2lRD0yCEFRCAAAQgAAEIQKAbgZUS3mVUeoOacsBXWYBLbP/y9Uvz11Avw8sayv7lMwQgAAEIQAACEJgagZUV3sERmn7w4c/smO0vXse9CoteQxxeg8zMJKvgcdoIAQhAAAIQgMBUCKy88A6OCGkoygVfJhGu1zGfKV4PfbpYk7MdvM0aAhCAAAQgAAEIDE8A4V3BPIjw++7cOttXRMS9pKNoFhKljJx+bW2+luhmgQAEIAABCEAAAhCYBgGEt8EPEuL33bll/mIepabo35iLcrP1AKSE9RsXLs/+cOFKEdVe/25Mu6gbAhCAAAQgAAEIQKCeAMK7nk3jLxLje2/bNNu59Ya5IN+5ZUPx9+b5PuG3xgIqflTEWiJai9JDLq59MP+sKPbFS1dnbxd/8xDkHAn/QQACEIAABCAAAXcEEN7uXIbBEIAABCAAAQhAAAIeCSC8PXoNmyEAAQhAAAIQgAAE3BFAeLtzGQZDAAIQgAAEIAABCHgkgPD26DVshgAEIAABCEAAAhBwRwDh7c5lGAwBCEAAAhCAAAQg4JEAwtuj17AZAhCAAAQgAAEIQMAdAYS3O5dhMAQgAAEIQAACEICARwIIb49ew2YIQAACEIAABCAAAXcEEN7uXIbBEIAABCAAAQhAAAIeCSC8PXoNmyEAAQhAAAIQgAAE3BFAeLtzGQZDAAIQgAAEIAABCHgkgPD26DVshgAEIAABCEAAAhBwRwDh7c5lGAwBCEAAAhCAAAQg4JEAwtuj17AZAhCAAAQgAAEIQMAdAYS3O5dhMAQgAAEIQAACEICARwIIb49ew2YIQAACEIAABCAAAXcEEN7uXIbBEIAABCAAAQhAAAIeCSC8PXoNmyEAAQhAAAIQgAAE3BFAeLtzGQZDAAIQgAAEIAABCHgkgPD26DVshgAEIAABCEAAAhBwRwDh7c5lGAwBCEAAAhCAAAQg4JEAwtuj17AZAhCAAAQgAAEIQMAdAYS3O5dhMAQgAAEIQAACEICARwIIb49ew2YIQAACEIAABCAAAXcEEN7uXIbBEIAABCAAAQhAAAIeCSC8PXoNmyEAAQhAAAIQgAAE3BFAeLtzGQZDAAIQgAAEIAABCHgkgPD26DVshgAEIAABCEAAAhBwRwDh7c5lGAwBCEAAAhCAAAQg4JEAwtuj17AZAhCAAAQgAAEIQMAdAYS3O5dhMAQgAAEIQAACEICARwIIb49ew2YIQAACEIAABCAAAXcEEN7uXIbBEIAABCAAAQhAAAIeCSC8PXoNmyEAAQhAAAIQgAAE3BFAeLtzGQZDAAIQgAAEIAABCHgkgPD26DVshgAEIAABCEAAAhBwRwDh7c5lGAwBCEAAAhCAAAQg4JEAwtuj17AZAhCAAAQgAAEIQMAdAYS3O5dhMAQgAAEIQAACEICARwIIb49ew2YIQAACEIAABCAAAXcEEN7uXIbBEIAABCAAAQhAAAIeCSC8PXoNmyEAAQhAAAIQgAAE3BFAeLtzGQZDAAIQgAAEIAABCHgkgPD26DVshgAEIAABCEAAAhBwRwDh7c5lGAwBCEAAAhCAAAQg4JEAwtuj17AZAhCAAAQgAAEIQMAdAYS3O5dhMAQgAAEIQAACEICARwIIb49ew2YIQAACEIAABCAAAXcEEN7uXIbBEIAABCAAAQhAAAIeCSC8PXoNmyEAAQhAAAIQgAAE3BFAeLtzGQZDAAIQgAAEIAABCHgkgPD26DVshgAEIAABCEAAAhBwRwDh7c5lGAwBCEAAAhCAAAQg4JEAwtuj17AZAhCAAAQgAAEIQMAdAYS3O5dhMAQgAAEIQAACEICARwIIb49ew2YIQAACEIAABCAAAXcEEN7uXIbBEIAABCAAAQhAAAIeCSC8PXoNmyEAAQhAAAIQgAAE3BFAeLtzGQZDAAIQgAAEIAABCHgkgPD26DVshgAEIAABCEAAAhBwRwDh7c5lGAwBCEAAAhCAAAQg4JEAwtuj17AZAhCAAAQgAAEIQMAdAYS3O5dhMAQgAAEIQAACEICARwIIb49ew2YIQAACEIAABCAAAXcEEN7uXIbBEIAABCAAAQhAAAIeCSC8PXoNmyEAAQhAAAIQgAAE3BFAeLtzGQZDAAIQgAAEIAABCHgkgPD26DVshgAEIAABCEAAAhBwRwDh7c5lGAwBCEAAAhCAAAQg4JEAwtuj17AZAhCAAAQgAAEIQMAdAYS3O5dhMAQgAAEIQAACEICARwIIb49ew2YIQAACEIAABCAAAXcEEN7uXIbBEIAABCAAAQhAAAIeCSC8PXoNmyEAAQhAAAIQgAAE3BFAeLtzGQZDAAIQgAAEIAABCHgkgPD26DVshgAEIAABCEAAAhBwRwDh7c5lGAwBCEAAAhCAAAQg4JEAwtuj17AZAhCAAAQgAAEIQMAdAYS3O5dhMAQgAAEIQAACEICARwIIb49ew2YIQAACEIAABCAAAXcEEN7uXIbBEIAABCAAAQhAAAIeCSC8PXoNmyEAAQhAAAIQgAAE3BFAeLtzGQZDAAIQgAAEIAABCHgkgPD26DVshgAEIAABCEAAAhBwRwDh7c5lGAwBCEAAAhCAAAQg4JEAwtuj17AZAhCAAAQgAAEIQMAdAYS3O5dhMAQgAAEIQAACEICARwIIb49ew2YIQAACEIAABCAAAXcEEN7uXIbBEIAABCAAAQhAAAIeCSC8PXoNmyEAAQhAAAIQgAAE3BFAeLtzGQZDAAIQgAAEIAABCHgkgPD26DVshgAEIAABCEAAAhBwRwDh7c5lGAwBCEAAAhCAAAQg4JEAwtuj17AZAhCAAAQgAAEIQMAdgf8Fq0On7LYD3oMAAAAASUVORK5CYII=;clipPath=inset(10.32% 0% 3.97% 0% round 50%);fontStyle=1" parent="1" vertex="1">
          <mxGeometry x="990" y="180" width="166.66" height="60" as="geometry" />
        </mxCell>
        <mxCell id="b7SMPCYk1F2Nh4VCUBtI-14" value="Dispositivos" style="shape=image;verticalLabelPosition=bottom;labelBackgroundColor=default;verticalAlign=top;aspect=fixed;imageAspect=0;image=data:image/png,iVBORw0KGgoAAAANSUhEUgAAAMgAAADICAYAAACtWK6eAAAABHNCSVQICAgIfAhkiAAAAAlwSFlzAAALEwAACxMBAJqcGAAAB/VJREFUeJzt3WusHGUdx/Fvz7GttCK0KJUmxmgD1ShHFEWsUQQVCWnTEj0qhqRGEV8YvCR4jwRvgURDsAavvNCYcLPeEoRigppo8IJECYhYA7bGWBSkoVSF3o4vnnOC7dn9z15m53l2zveTTJrs7Mz8O2d/u8/MPDMPSJIkSZIkSZIkSZIkSZIkSZIkSZIkSZIkSZIkSZIkSZIkSZIkSZIkSZIkSZIkSZKk2iwaYJk1wDRwGnACsLjWijRqh4A9wL3ArcA24GDWilpiNXADaQfPOLVmegA4Dw1lHfAQ+f+YTqObtgAT6DCTPbznxcBPgBUjrkV5vQI4ltTk0qyqgCwFbiM1r9R+pwN3AttzF1KKqp/UdwNrmyhExfgCg528aaWqgLynkSpUkrXAGbmLKMVTgnmrgRdVLL8LeKS+ctSACeAk4ub1G4GfNVLNGDuT+KzHt/Gsx7haR7r20e1v+/18pZUl+oAfXbHsjaRrIho/twM7g/nHNFVI6aKAVP06zNRZiBoXfbnZMpjljpACBkQKGBApYECkgAGRAgZEChgQKWBApIABkQIGRAoYEClgQKSAAZECBkQKGBApYECkgAGRAgZEChgQKRA99kfttoH05MxO9jZZSMkMyML1x9wFjAObWFLAgEgBAyIFDIgU8CC9vZYCLyWNI9npi7DTkzG7PS2z23u7DZPQ6fV+3rsPuI/CxynZRPzw6vX5SlNgGXAF8Cj5h3UbdroH2Fjv7qmPARk/xwN3kf+DXfd0eZ07qR8eg7THImArMJW7kBH4KHBhjg0bkPaYBl6du4gRuoLUfGyUAWmPC3IXMGLHAec2vVED0h5tbFod6ZSmN+hp3vZ4WsX8XaTTpyVbATw9mL+8qULmGJD2u590fPK73IX0YBK4CPgSnQcZbXx4aptY7Xc+4xEOSAOLfgW4OnchcwxIu+0G7shdxABuzl3AHAPSbqUfc3TzRO4C5hgQKWBApIABkQIGRAoYEClgQKSAAZECdjVRiQ6SLnIeOuL1xh9oZ0BUop8DK3MXATaxpJABkQIGRAoYEClgQKSAZ7FUmpXAecDJwFNrXvdB4G/ATcDdw67MB8eNl4eZ/zd6MGtF/buYdK2jiYfR3QgcW1WQTSyV4jJgC809mGEa+GnV9gyISnAacGmG7Z4CfCZ6gwFRCd5HhieWzLqI4ImNBkQleE3GbS8HXtJtpgFRCVZk3v5x3WYYEJUgV/NqTtccGBApYECkgAGRAnY1UaleD/yh5nUuIz3Mu2cGRKX6F/V3lakaImIem1hSwIBIgWECkvvctTRywwTkTRgStdwwB+mbgdeS7kNQM74LXJ67iIVk2LNYz5md1Izf5i5gofEgXQoYEClgQKSAAZECdjWZ7zZgG+npGlOkccYrn36hdjIgT3qcFIYfHPH6ZcD3gFc1XZDys4n1pA8yPxwA/wQ2zP6rBcaAJA8D1wTzdwNfa6gWFcSAJL8HDlS85zdNFKKyRAGZbKyK/Bb38J4lI69CxYkC8p/GqsjvZVTfTHNmE4WoLFFA+ro1ccwtBz4ZzD8JeFdDtaggUUC2AzubKqQAHwY+xfym1CuBHwNHNV6Rsqs6SP9yI1WU41Lgr8B1wNeBXwG3Y4/lBavqQuEW4B3AC0ZfSjFWAW/LXYTKUPUL8jiwkfEbiEWqRS/XQf4MnA78YsS1SMXp9ULhTtIj6jeR+iXZ7UILQj+dFWeAH85OkC4k9nKBLacJYA/NXvT8AHD1iNZ9aETrVRfD9OY9ODuV7ESa7xGwhupuKxoTbe+LdcYC2aZGpO0BOT/DNqdYWKfFW63NATkVOCvTti/JtF3VrK0BmSBd5MxlM2lo49xW0Ny4463U1oB8GliXcfuTpO4qKzPWAKlfWdQJUxXaeE/6JcAnchcBPI/UyfFs4JGMdXwEeCFwE/BExjruZQxvOmtTQJYDVwEX5i7k/5wK3AG8BbgzYx3rZ6ecvkh/AbkB+G/NNbS1xRSaIHUu3EG6mFnidIAU3lWj2QVAuq8+9/8zmq4Kat+bubZN3Qob50Q9F/g4cB+pvV9yl/RJ4P3AX4BvAq+j/F4IkQeArwLXU/+3fD+2AeeQ+gp+FtifsZaslgFvAD4EfIt0t2Pub8Rhp8eAW0jDGbwVOH7IfdTUL8hWDr+pbC3wjx6Wq/sX5Gbmf8FvHvD/1PUXZBxsIA3omPsDPeppH+kXcVC9fEiHnfYDz+iw7Yt7WDYKyGMD1HJ2h/UsAh4aYF0buxVWehNrDfAd8p8ubcJi4HPA9IDL76ivlK4epPOASXf3sGx0QmjvALXs6fDaDClsdawLKD8gbweW5i6iYe8ccLlbaq2isxOAZ3Z4faqHZZ8VzBtkYKANHV47mXRs2o8DwF0DbL8IV5K/6dP09OsB99Uq4NEG6tvK4ScYTqS35t32oPb1A9Sxn3RKf+5Lfgr40wDruS6oq3hvJv8HtunpyiH21zTpFoRR13g/6Z6Xa4F/97Hcs4Parx2wlt2kG/oGWXYXsLqH/VqsCeBW8n9om5p20LkJ04+NlHtN5GNB3UuAbzRYyz3A86t25jgM47wEeC9wLnB05lpGZR/wS+Dz1DNq8DGk47ezSN+QnY41Z3p8LXq9X38nndKO1vdy4ALS8cRR1PsZPUB6rNOPSFfqvbFNkiRJkiRJkiRJkiRJkiRJkiRJkiRJkiRJkiRJkiRJkiRJkiRJkiRJkiRJkiRJkqQm/Q8mjiHDhI5rQQAAAABJRU5ErkJggg==;fontStyle=1;labelPosition=center;align=center;" parent="1" vertex="1">
          <mxGeometry x="360" y="104.63" width="130" height="130" as="geometry" />
        </mxCell>
        <mxCell id="b7SMPCYk1F2Nh4VCUBtI-15" style="edgeStyle=orthogonalEdgeStyle;rounded=0;orthogonalLoop=1;jettySize=auto;html=1;entryX=0.5;entryY=-0.017;entryDx=0;entryDy=0;entryPerimeter=0;" parent="1" source="b7SMPCYk1F2Nh4VCUBtI-14" edge="1">
          <mxGeometry relative="1" as="geometry">
            <mxPoint x="585.0050000000001" y="364.91200000000026" as="targetPoint" />
          </mxGeometry>
        </mxCell>
        <mxCell id="b7SMPCYk1F2Nh4VCUBtI-16" value="&lt;b&gt;Cloud AWS&lt;/b&gt;" style="outlineConnect=0;dashed=0;verticalLabelPosition=bottom;verticalAlign=top;align=center;html=1;shape=mxgraph.aws3.cloud_2;fillColor=#F58534;gradientColor=none;" parent="1" vertex="1">
          <mxGeometry x="547" y="370" width="75" height="75" as="geometry" />
        </mxCell>
        <mxCell id="b7SMPCYk1F2Nh4VCUBtI-21" value="&lt;b style=&quot;font-size: 11px;&quot;&gt;Dynamo DB&lt;br&gt;(tech-medicos-api)&lt;/b&gt;" style="outlineConnect=0;dashed=0;verticalLabelPosition=bottom;verticalAlign=top;align=center;html=1;shape=mxgraph.aws3.dynamo_db;fillColor=#2E73B8;gradientColor=none;" parent="1" vertex="1">
          <mxGeometry x="910" y="516" width="70" height="78" as="geometry" />
        </mxCell>
        <mxCell id="b7SMPCYk1F2Nh4VCUBtI-33" value="&lt;b&gt;AWS Lambda&lt;br&gt;(tech-medicos-lambda-auth)&lt;/b&gt;" style="sketch=0;points=[[0,0,0],[0.25,0,0],[0.5,0,0],[0.75,0,0],[1,0,0],[0,1,0],[0.25,1,0],[0.5,1,0],[0.75,1,0],[1,1,0],[0,0.25,0],[0,0.5,0],[0,0.75,0],[1,0.25,0],[1,0.5,0],[1,0.75,0]];outlineConnect=0;fontColor=#232F3E;fillColor=#ED7100;strokeColor=#ffffff;dashed=0;verticalLabelPosition=bottom;verticalAlign=top;align=center;html=1;fontSize=12;fontStyle=0;aspect=fixed;shape=mxgraph.aws4.resourceIcon;resIcon=mxgraph.aws4.lambda;" parent="1" vertex="1">
          <mxGeometry x="229.99999999999994" y="525.42" width="59.16" height="59.16" as="geometry" />
        </mxCell>
        <mxCell id="b7SMPCYk1F2Nh4VCUBtI-34" value="" style="edgeStyle=orthogonalEdgeStyle;rounded=0;orthogonalLoop=1;jettySize=auto;html=1;exitX=0;exitY=0.5;exitDx=0;exitDy=0;entryX=1;entryY=0.5;entryDx=0;entryDy=0;strokeColor=none;" parent="1" target="b7SMPCYk1F2Nh4VCUBtI-35" edge="1">
          <mxGeometry relative="1" as="geometry">
            <mxPoint x="563.0487804878048" y="600" as="sourcePoint" />
            <mxPoint x="320" y="489" as="targetPoint" />
            <Array as="points" />
          </mxGeometry>
        </mxCell>
        <mxCell id="b7SMPCYk1F2Nh4VCUBtI-38" style="edgeStyle=orthogonalEdgeStyle;rounded=0;orthogonalLoop=1;jettySize=auto;html=1;" parent="1" source="b7SMPCYk1F2Nh4VCUBtI-45" target="b7SMPCYk1F2Nh4VCUBtI-21" edge="1">
          <mxGeometry relative="1" as="geometry" />
        </mxCell>
        <mxCell id="b7SMPCYk1F2Nh4VCUBtI-79" style="edgeStyle=orthogonalEdgeStyle;rounded=0;orthogonalLoop=1;jettySize=auto;html=1;exitX=0;exitY=0.5;exitDx=0;exitDy=0;exitPerimeter=0;startArrow=classic;startFill=1;" parent="1" source="b7SMPCYk1F2Nh4VCUBtI-45" target="b7SMPCYk1F2Nh4VCUBtI-33" edge="1">
          <mxGeometry relative="1" as="geometry" />
        </mxCell>
        <mxCell id="b7SMPCYk1F2Nh4VCUBtI-45" value="&lt;font style=&quot;font-size: 11px;&quot;&gt;AWS EKS&lt;br&gt;(tech-medicos-api)&lt;/font&gt;" style="sketch=0;points=[[0,0,0],[0.25,0,0],[0.5,0,0],[0.75,0,0],[1,0,0],[0,1,0],[0.25,1,0],[0.5,1,0],[0.75,1,0],[1,1,0],[0,0.25,0],[0,0.5,0],[0,0.75,0],[1,0.25,0],[1,0.5,0],[1,0.75,0]];outlineConnect=0;fontColor=#232F3E;fillColor=#ED7100;strokeColor=#ffffff;dashed=0;verticalLabelPosition=bottom;verticalAlign=top;align=center;html=1;fontSize=12;fontStyle=1;aspect=fixed;shape=mxgraph.aws4.resourceIcon;resIcon=mxgraph.aws4.eks_cloud;" parent="1" vertex="1">
          <mxGeometry x="625" y="495" width="120" height="120" as="geometry" />
        </mxCell>
        <mxCell id="b7SMPCYk1F2Nh4VCUBtI-64" value="" style="shape=image;imageAspect=0;aspect=fixed;verticalLabelPosition=bottom;verticalAlign=top;image=data:image/png,iVBORw0KGgoAAAANSUhEUgAAAeAAAADwCAYAAADYdbe6AAAfdUlEQVR42u3dC3iU1Z348XMmgaBW6q2IuSgqKpdaBVHrlUSpFSETebZxq0nQ9m+h+9+20N1afLrdmnbbLTztv8q2/bfSq2RAa1wxM4A3LAGrbb1gFRFUvJXMoHjXKoRk5uz5MScuppPMO5OZN5nJ9/M8hzDJm8nMed95f+e87zm/oxQAAAAAAAAAAAAAAAAAAAAAAAAAAAAAAAAAAAAAAAAAAAAAAAAAAAAAAAAAAAAAAAAAAAAAAAAAAAAAAAAAAAAAAAAAAAAAAAAAAAAAAAAAAAAAAAAAAAAAAAAAAAAAIE+am02AWgAAYGB0pr/QWBv7htKJY+Im8G83R8pfowoBAMhc5r1ZbUbYf+aVKvN0YzC2oL7elFCNAADkOwA7RqvD7L83lO2JbW6qi32aqgQAwIcA/L89YjXRGHNXUzAauWLWK8dRpQAA+BGAe3rESs0OlHRvbaiNLv188NWDqVoAAHwIwM5IrdVX9qq925qCsXmMmAYAwJ8A3KPcKHPj9k2xPzfWRc+mmgEA8CcA95imjPpDYzB269za2NFUNwAA/gRgoZUy9QltnmoMRpuvqn5hFNUOACAA++cgW66Ljx75TGNdx1yqHgBAAPaRUapKGX1TUzD2+7nBHZ9gFwAACMC+BmJTk1CBxxrqOpY3zXl5DLsCAEAA9vHva6ObTDy+rbE2uqi+fstIdgkAgADsn0OVVovLOg95oqluxyXsFgAAAdhfJxkTWNMQjN7bULdzErsHAEAA9pFWaoY25i+S1rK+/rmPspsAAARg35gRktayrHPUcyx7CAAgAPvv8H3LHnbGHmqsi53HLgMAEID9NVUZs1GWPbzq0p3j2HUAAAKwj2TZw+5E4qnGuuji+vpdH2EXAgAIwP45wEbiRWWdXduSaS2NZlcCAAjA/qnYl9ayduefGmo7PsnuBAAQgH1ktDlDa/2gpLW86pJdY9mtAAACsH+0pLXsLu3aLssefnnms2XsXgAAAdg/+5Y9fHPEgU82BTvq2cUAAAKwv8YbpW9trIuua6jbcTK7GgBAAPaTURdqE3hYpi01N5sAuxwAQAD2T5lMW9qy5alSdjkAgAAMAAABeHjisvSQ2RPsBwAE4OFk+6bYRrJpDZ4ZM1YfV10djtTUnHYxtQGAADyMGLJpDYqZM9eOnj49vLSrK7HVPpxNjQAgAA/XQJzMpvWAZNO6PPjKkdRIvjQHamrC83bvjm+T9Z5tGUmdABiOGBXcq0Ei2bRKVPecxmD0/x3a9f73f3znCZ1US25UV0fOlbWdjVGn7bv2AAD0gNGLLHMo2bQ2k01r4C64YM0xNTWRW23Q3WgfnkaNAAA94HROcNm07tPdJQtb1ox9kirx7qyzbj2grKxsUTwev0ZrdSA1AgD0gDNj1IWmJP5YY7DjxstrY0dQIWkrTNse71wbfJ9RSl9H8AUAAvAArxboeaXKPN0YjC2orjZcPUihunrNqdXVkfXGmJtsfVVSIwBAAM5R304dJgOJqkbHNttAzNxV58IL246sqQkvNyb+qH04nRoBgLS9OmQViJWaYP+9sykYXR2Ply5YuebI54djPcycubZs9+7uhfG4utY+PESTzgQA6AH7FIhnB0q6tzbURpc2zHx99HB679OnR2pt8N1s/7tYgi9HAwAQgP02cl9SiRF7tjYFY/OKPb90TU14cnV15F6tTdg+PIHdDwAE4MFWbpS5cfum2J8bgtFziu3N2aB7xPTp4RuN0Y/Zvv8MdjcAZI97wPkxTSt1f2MwdlvAqK8tj5T/tZDfTH39rSWvvlr2JWPMt3RyEBp7GADoAQ9ZNgab+oQ2WxuD0earql8YVYhvoqZm9adffXXUZvt2bkgGXwAAAbgwSBKK6+KjRz6TXPawMPQsE2hM4i77cCK7EQByi0vQPjFKVcmyh421sc8pk1gYWl35+FB8neec03Zwaan+bldX4ousVAQA9ICLhzbVKqA3ybKHTXNeHjN0XlhymUAbfFkmEADoARdvw0eWPTTxeG1jbXRx56i3rm9tnbx3sF7MBRfccXYiEVhqjJpGIg0AoAc8HByitFpc1nnI5sZgxyy///iMGZGjZZlAG3z/YB9OY3cAAD3g4eZEpfTqhmB0XakJLLwpctSWfP6x6ur1o5R659quLsMygQBADxjadkrj2jwmaS3r65/7aD7+hiwTqNS7LBMIAARgfJgZIYOgyjpHPSfLHtbXm5IcBd5TqqvDbplAVUU9A0CBBWBtVIciFZIfDpdlD8s6Yw9fEYydn+2TXHTR7WNkmcBEwmyyD6upVgAo0ADcEqn4lS7Rk20Evpvq88WUgDIbmoLRSFPty8d6/aX6+ltH2h7vor17S582RjXZXjVXOwCgkAPwviC8qnzrinDFxfakHrQPX6Aa80+WPTQ6vqWxLrr488FXD+5v25qatlm7dpWxTCAAFFsA/iAQt1VEOsvemqCUXmgfvkt15t0BNhIv2qu6HmsMRj/V+4eyWlF1dVurMXq11vpEqgvw5Rx6si2yOtgcW+rd1xpbptgyTjHbBH0Y8IHhEkgs/Wzwr62lKnCdDcZXKwZ35bs/fLz950pb7v3Qd03iZBt4P0P9AHk/b85xn0FZdjTdVaY9tsgVqU2u/EIxjga5DJS3hI+OhcKV87XSZ9qHD1K1AIrQTFu223KrLbOUt1s8shLa6bbMt+W7BF/krAfcW0u4/BF7fJ3bFIx+xij9Q/uto6lm5MFUd2IbimK2vMguKjrNtnxL7Zuyn7XnqEbkLQAnadMSVq1NF7281oyKX2O/sWgInyxRmFYN4cbdDbZ8lV1UVL5gy3U5eB4CMD6Q13u1LfeMfS8Urmju1upEY2My1Q2gAB3pGlW58DzVCV8CcI9b2ip2rGirnJtQ5gL78AmqHUAB+ZItuUrbSg8Y/gbgHivDlevHTy2forSR0YO7qH4ABeDKHD4XPWB8wPf5ac3NOmG/LL9i1kuRQGnpImX23Stj8XcAQ5GMM/CaO13ObbK050O2xF2v+TBbxqrkXOExBGAMagD+oDe85pg37ZdrG4PR3yijf2R7xZewOwAMMWd43E7OZ5KMY1M/2xxhy+tUKXoMesKMULji6VCkfFZAK8ns9BS7BMAQUulxux+lCb7iNcUcYAylANxjeVvFugPH7jw1mdZSv82uATAEeF2Xm+RDyNiQylG6bNm0Lvtl6dw5HaF4t/6W1uqf7eMSdhNS+LVK3l/LlGQumuthO7lUuCLL17aB3VM0Rnvc7jWqCgUdgD/oDa+qlJPfgsba2E1KG5l/dx67Cr18O8vfO8ljAH5ZjkGqedjzepXwfaoK+Tq4BkUoUr4pFK44X5Y9NKT2AwAQgP0lyx7uLUtMUkZdax/+jd0GACAA+6S1tWp3KFKxJJBITHBpLRlNCAAoWAW3UPTy1VVR+2XuFZfu+EkgEVhq//9JdiOGKEngcLYtp9hSrpI5hff/zMla2i+pZHIGSdEq01iyHcwji50c0M/PZYDj3zy83rnuNYV6/eyjaRrsf3N/o7/G/nRbPmfLV2x5K81rOciWj9tygqs3mQ4kiSwkac/+SwDK/Fu5//qeLVtdHT7uHvtJBmsdmmYb4+F9qxT1fpotU2wZ50rvhW2kDl5UyTSXj7hjqSvL9zHS1X1fJMHIO2me42O2NKhkYpL/6vWzg/uJO53K+730Y1VyiceT9js+jnTHyKsquf7ySlvWZxETJ9kyzZZjbKlQyUQqY9znVTI4/tmW2215dtgF4B4r76h6yB7PZzfWRZuU0UtcJQGDTU7EX3AnoCkZ/q6c3O63ZZlKrjcbz+B3ZcDY4n5+/kfXGEjlXFu+rpLr20qg/GmKACyB7bh+nl/SNS5P8X3JBvV5lVwdquf3f9ArEGl30qtWyQGXstTk8Sr7K3RSb4/ZcpstN6nkgLp07rblogHs90c9bLPTNcS8HEPSEKq35RyV+UyQd937kX0YcYHQq/oU+35/f3WBKZVT3XH0GVtG2HJHigC82pbz+/j9dltq+viZNMTm2HKha5Ac3s9rlONM1qW/2pb7XKNvRz/bT3Pv+zz3Hg5IU0fyOr7vPqdf99Ag6bdVWsC0CbVVLtd7Ssar5KjYTs7/GCQj3YdRTlA/zCL4KneirXYtd+nFnJXD13dCiu9Vu4AvpXa/80FlFs9/YorAu8j1zH7cK3j3Tu34H7Y8actPbPlH91oHcm4qcSfVxa43/x0XEAZbuqsbZbZ8w5YOV2fnq+ymYR7sgqAEwG22XJrD91CZIkBJQFzrGmmX71fXFRk+9zm9rm4cs9+x8YwtS1wj6fAMnvNC1/gc1+v7k1xD8AVbHnaf3bM8BN/9G43zbblHDWChjgIPwEk9yx7aht7Hbb20EgvgM7nkts6dID6ao+eUE8QG13vMBUmD2DNvWvIS36mSl+fOTbFtVRbPf+J+55Sr3QlzsaubVCfx/T2bx30jDaN/d/vn0EE+Tt5Is7/l8vH3XADNZcNL1s6+WXmf05wuZox3/5fLwLe4ADbTBaX+9nM6I1yAneoaodtt+aYtkwf4mqUh8Dv32mVFvjUuqH8tRWDOlPS0f5btLxfsJehUQuEq2WGXNczuuFAHAtcrZU4mNiDPjrLl97ZMyMNzywnpl7Z0q9SXdzN1musZXZ2m8Z1NAD7J9Trl9Z6SZtvez7/Vh/10vjvxyn3orkE6VvrKAz3N9aTy2UD4rAucn07TEPBCzqtyi+Vf0lxZONI1gPZm8Nw/z1M9SE7v53IQcFNpclcsHhmWPeDeVqyuvK/jnaOmaqXlEgEZapAvJa4HMCGPf0O7k1Iu/oYMHJnn4XMvveVRGT73RJVcCegUD9tWpgjAfsxqOMv1egbL63004MI+9c6nuZ7lQM/7N6rk7YV0l/Xl72Q6Nief9TAuj5/RL2Z7OaEotbfr7pZw+bLOssRJxuwbCNBNvECOfVn1PaAkl+S+1A05eJ6PZHBCyebyYZnHbXv3gGXQUIdP+0zu9Y0epOPl9RT1HHJB2C/SA/5Xn44jpbIbT1CILlF/fwl++AbgHq2tVW+siFQssL1h2/qdFFdAbvQMmPHzxDnFx7+XzxNnqkvcW316XzLIp36IBOBqlbwn6bdvZhhEh+pxNJQclU0Pu3SYVI6yveFHFJA7MhXhYx63ldsgMmXhXpUcJd1DptrMVslpS15GX16hktNr/FCVx+eu7CMA90wDkjnFMnpXlieVqTsyz/Wt/UpPQ1oGvMm9Z5k+UpNBD1z+zq96fU9G8b6YYlsZZOPlsrpMS0m3itu6Xo8zvWwpU2naXb284c7fMiJYBnBNz6AnLVcA5B7ujQTgnJLbRC8QgIH8+5zH7Ta6YJ1q4MvzLij/QiUHcqUL6DKQRi6h5vN+qQQ4udwdztPzS0O4OcX3ZXWru1zgfSmL9ygjcuX+ppfEPFNTfG9pH9su8RiAf6b6n2vam+xrr9ODpAEnK8P9t+p7bvhI15D7gcfG3Lw8B2BJhCLzyZfn4bmlQSbT9La440Tmt+fi6pDMl37GHYPy2ZTR6DPcsZWXxsawD8A6+aEZpzCYdicS5tUCer0lqu+kFvuTrDn/oNKPOpUpEYtcEEr3AZcpFfm4X/qK68X9UuUni5RMefqWSg7USuUJV7IlPY9Z7mu6e7zHu97zYK47fq4Lml4aROe4wNCfvS7gSabA21X6+5ESsA51wSzXDTiZfvb/VfLefi7E3dWDta6huqVXA01upf7cNUAyPvfY0qaSCUJkJHrv89CBrmHoZUW+jC/rF/094HTGTy2vVtpc6U5A8JExKmHLsni86/gNG4IPF9BLn+jxw/Yz5X0U/s0eT1iTc/xe5AT0XfeeluYh+MrJsk4lEyL8Ic/75Q13MvXQ7vZ14FMqp3vc7jsegu/+JPnGnR7r4PQcvh+Z2nW9St4SWJKj4BuzRRbgOdqWi1Uyq9aTKa6OJNwxnOlx+QV3HEjykBUpgq+Q1Jg/9PicBxGAM9TcrBOSTauzbATZtPz1QCAQOMMG3vn33/8POwvstXudX74ug+fco5L5a9PJ5ZSnFtcb/Pc89IRkwJE0bD+hkpez/Vo85UmP240e5GPIyyVTqbObsnjum3L4GrxY645LmRe8KwfPJ43AhSo5b3mJC8TpyFWhbo/bfdYdl7/0eBXE633djLOWcQ/YaW0dIwM/mq+YvWNFIFDyPXvs11MrefGSMeYaG3hvk1SiBfoeDvP6XjN8Xi9XYY7IweuXQTxfUpknqvd0YUMl72l/Q/WdeCKfvDYkBjsAe9mP21V2STMezuFrSHd8y1S8SI7rRgYqLs3wdxIuAKeLaXIV5ndZ9O7zYtj3gHtbubrq2VC4/DKTMDNsfHiSGsmZ3fbc/O2DD9aTNmyoay3g4Cu8ppt8P8Pn3eNhm4GmKZTgeHqegq9czpZLhfMHKfgKr1mXDhjkY8hLwolsx0XsyuFr6LPPopKD0yIKWaMH3AfJplVdbaZUjd75eaPM93LU8xiOjNYqZEzpN9rbL+kokvd0UL7qysM2A52/uTaLhoFXsirMPQWyD3UBHEN7snxur783kMacjN5/W4EAPBBNdTvObGmr+nOqn0k2LftlWX39jttG7glcZwOJTAUo4bDxHE/+orVeuH59cEORvTGvJ+/tKrN7n15Oyhx/w+sYKvbXQAAezhImcEtTMPaCVvGFy8NVKadBSDYt+2VB05zYz03c/EglL7Ohb6/YwPv19es3hZRqTgzjejiEQwEAAbi/fpoyNUYFHmuo61gRCJR+rWXV2JT3UFpWlUu2nplNddFaY8wNtgF5HLX3ITKC3NZLfPH69XPeojqQJbnMLsvbyb1qWcFJ7rkf6q4QpJs7O5LqAwG48AS00U0mHp/dWBtd0jnqretbWyenHNDR0lYRqa/fcndZ56H/ZMO3zNMbTfWp1YmE/peNG2ufpSqQJQmyMu3kcuVfrmJg8IIOVZDiJKDV4rLOQ55oqttxSV8bSXAOhcuXdqv4RBuEJc/vcL3UusW+9U+1twdrCb4YAJmX+ReVTI5A8AUBeJg7yZjAmoZg9N6Gup2T+trolvDRsVC4cr5WWpK2PzCM6uct2/BY+O67O6e0t1+6jsMFAyDpNSXd39FUBQjA+IBWaoY25i8NtdGl9fXP9Tn/U1Zbsj3i87Qyl6kPr3hTbOKyvnJZ2cjj29vrlj766PwujhIMkGSgO4pqwHDDPWBPzAit1VfKOkc1NAZj/9FZdtRPWlt1ilVJtGkJq9Z5tbE172sjq9ZIgv1RRVQPdycSJV/duHH2Vo4JT2RebK7XoH6/yOpojEoujQcQgNGvw20QuqGsMza3sS62MNRWfn+qjZZFyuUk2fzZuuivSpT5ngzuKuiwa2RpLr1ww4YgWW8yI6N4n6Ea+nVxho1UGWshKTt39/Hzj7igDgx5XILOzlQblTY2BaORqy7dOa6vjW5pq9ixoq1yrgokZLHwxwvwfb4r93nHjNkzccOGWoLvfm0SqiBnPulxu9/YcqItZbaUq+QiEqnKggJ5315u3WSbdMXr7+3l8CMAF/JZeHZ3IvFUY110cX39rj5HbobuqGofP7V8qlv2cNeQf19umcARI8wEuc/b2noZH9QPe8fjdsxJTW+ih20kJ/vVtsgo++4ied9e0jhmmyrSa67yNzn8CMCF7gAbiReVdXZta6zrmCupj1Nt1LPsYWlg70lK75vrOCSDmjH6Qa3NmbJM4L331sXYvVmfPAWZsHJTR39UxTfNz0vwOyHLXvBJHrd7g8OPAFwsKmzsvampduefGmo7+rys9ts7jn0r1FZxbaDEnKyUXjOEer1/NcZctmHD7HNtr/cRdmdOeg4nU1VpeUli80oRvu8XPfaAz8ziuWd43O55Dj8CcFEx2pyhtX6woa5j+VWX7Brb13bLV1U+EwqXzw5o9SmzL5nFoNkjywSOHq0nFsEygX55wuN2l1NVaXm5pHxwEb7vhzxu902V2aIJH7Pln3L8GkAALihaRj53l3ZtbwxGm78889myPgNxW8W6g8bunCKjjG15298XqVoSicSJtsfbHInUvs9u8+xp5e0y9Hm2zM3BZ9QeH+rUIq1LL/V4jNdDWiUHYhVTAJac2LIAjJcZK0faskp5GwX+tjuOQQAuWpI8/ro3Rxz4ZFOwo76vjZYtm9YlaS0DJYnjJcmFyv3c0d4et+eqmvXrg3M3brx0B7spY3I/8k8et5XRuz9WyRG8XshVk0+7nk+bSi7KvsmWa4q0Lr1cXpb6mNTPzyWH9BfdlYnvFsj7ftiWFzxuaxvn+9J0/l+VHLS2f49YGvdn2SJrlsuVtHM8Pufv1PBNnztkMA/YH+ON0rc21kXvMyrx1RVtVZtT9oZXVb5uvyyYG4z+NrFvVSF1fi5fhA3uuwIBfc369Y8O92UCc6HVBQYvjdwvuSIZ0rb16vXJPdADVDIdY6U7oaZyepHWozQuZqfZRupHBmLdbMtzrv6kt1dlyykqmUe60BLeyOdPcsh/3+P2k235ac9HWe1LBbvv/J3t5fmf8hEmAA8vRl2oVWBTY7Dj13ET+LebI+WvpQzE4YrH7JfpyWUP1VL7/2MHGHj3aq2u15plAnPoFtfbGpvB7xytss93PN719Ipt6sgfPW4nDZX5Rfbef2XLtcr7tKEe2h0L2bpbeR/HgDziEvSgNHr0vFJlnm4MxhZUV5s+G0Gy7GFnWWKyDdzyIX03uz+n15SWlpzc3h68tr2d4JtD76nkZWK/yEl3WhHW4722DNfbIHJ74ZpBOG6/wseXADy8O8NaHSZpLatGxzbbQHxxX9u1tlbtDkUqlgQSiYlGmxblPQuTWyawdvZ9980iHWJ+/NqW2338e8V4GVrGO/xyGB9Dv7DlJr9OO7bMU6RHJQDjg0/EBPvvnZLW8opZrxzX13bLV1dFJa2lMYEzbfDu57KdjKRmmUAfT2iNttzj0987o0jr8QcqeW93uJIsX8vz/Dck8c//sWUlH1sCMP7+TD47UNK9VZY9bJj5ep/JCVZEjno4+nb5+VrpG3r/rKQk8EwgoCazTKCvZFGAWpUcNJfvgW0Ti7gO/9GW1wf4PFL/v7XlogJ7/zIX+koXiPNxj19Secro6N/wcSUAo28jZdlDPaJzW1MwNq+52aTcP+3tulvWH+79/d//vjYqhWr0nfQuvqqSWYvCKrfTyGR/3mjLJSo52rdYPWqLLFqyOYvffc/1IGW+9OdU8r5yIa7JLYOyZLrakhw0RoQsGzrP1QvZ7YYgPdwroCEYfcFWwrghunMetU36BSvCFQ9wqObMEbb8q4ftXrZlaZZ/Q0ZGX6qS05TksnG5t4sgSnJvy9xQWTlLbjM8qLzPFZXgX+1hO7ln/WwW70lGIKfL2yyB8CcD3D8lLohepZLzW/vqJMjArQdcsJUpYb0HKc5R/c+9/m9btnt4PdLo8ZJbWdLK5jKZjUyrusA1vOQYkulW6Rb3eMsFWqmX1a5Rk2lmO5lvXethu7tUdiu8XaGS08f6I42PbMYFyOc63cyera6RnInD3dWJdP7g6p4AXAwB+H9PzPq2RLe6ZuXa8peInwUb9I9wAUxKz9xNudz4jisSaDupqg+Rub7Hu7orc0H2TXdVoGOY1UXANeTGqb+f8yx18mKOes2gB0wATkFa1z8ofWfv4t+2H7uHQxcACr9VhcJwoC3XdY8e+Wx/yx4CAAjAyI/K5LKHsf+kKgCAAAyf2f5vFbUAAARgAABAAAYAgAAMAAAIwAAAEIABACAAAwAAAjAAAARgAABAAAYAgAAMAAAIwAAAEIABAAABGAAAAjAAAARgAABAAAYAgAAMAAAIwAAAEIABAAABGAAAAjAAACAAAwBAAAYAgAAMAAAIwAAAEICLnFE/Ukq/zaEAACAA+2hFpOLHiXjXsUqrJfbhXg4JAAAB2Ccr1xzzZqit4lr7308oo9dSIwAAArCPQuGKp0OR8lkBrT5lHz5FjQAACMA+Wt5Wse7AsTtPVUov5P4wAIAA7KNly6Z1hcLlSwMlieONUf9lvxWnVgAABGC/esOrKl9fEalYoIw+wz68nxoBABCAfRSKlG8KhSvO11oFjVIvUiMAAAKwj1raKiJ7yxKTlFEyavpv1AgAgADsk9bWqt2hSMWSQCIxwWjToiSdBwAABGB/LF9dFV3RVjk3EUh80j78EzUCACAA+2jlHVUPhcLlZyttrrQPX6ZGAAAEYN9oE2qrXK73lIy3D75tSyd1AgAgAPuk5Z6x74XCFc1KJT5ug3IrNQIAIAD7KBSu2h4Kl19mEmaGDcSbqREAAAHYRytWV97X8c5RU7XS8+3D16gRAAAB2Cft7bq7JVy+rLMscZJLa9lNrQAAARg+aW2tekPSWsaNPtk+vIsaAQACMHx0c6R8WyhcMVPSWiplnqdGAIAADB9JWsvOsrcnJpc9VO9QIwBAAIZPWlsn75VlD1Vp1wTbG15mv5WgVgCAAAyfhG4ftzMUrpyfCOxb9vABagQACMDw0co7yh+1PeLztDKXKa1eokYAgAAM32jTEq5sPTChJ6lkWss91AkAEIDhk2WR8vclraUpNSew7CEAEIDhsxW3V3bIsocqkLjAPnycGgEAAjB8FLqjqn381PKp+5Y9NHoXNQIAgM+amw2NJwAAAAAAAAAAAAAAAAAAAAAAAAAAAAAAAAAAAAAAAAAAAAAAAAAAAAAAAAAAAAAAAAAAAAAAAAAAAAAAAAAAAAAAAAAAAAAAAAAAAAAAAAAAAAAAAAAAAAAAAAAAAAAAAAwD/wPmBT+0/WxL6wAAAABJRU5ErkJggg==;imageBorder=default;" parent="1" vertex="1">
          <mxGeometry x="973.05" y="19.629999999999995" width="170" height="85" as="geometry" />
        </mxCell>
        <mxCell id="b7SMPCYk1F2Nh4VCUBtI-35" value="" style="shape=image;imageAspect=0;aspect=fixed;verticalLabelPosition=bottom;verticalAlign=top;image=data:image/png,iVBORw0KGgoAAAANSUhEUgAAAT4AAACfCAMAAABX0UX9AAABWVBMVEUAAAD////7AVsA8ubWOv8AufH/AV4wMDCQkJAzMzPMzMzj4+Oenp57e3sHBwcA9emXl5fGxsbY2Ng/Pz/dPP+IiIgA++74+PgbGxsAyb/U1NQAVVAAwPrRAEy4uLhYACAAr+TQOPhkZGRWVlYA3tNvb2+tra0ZGRl7IZPt7e0AHx0AOzidADkhAAxuACgASUanADxKSkqSADUnJycANEREElGOJqkAY4HaAE8An9AAcJIAQFMAt64Agqk8EEjFNeqlLcVgGnK6Mt0AKigAeXM1ABMAZ2IAERAAh4FbACHsAVXEAEd/AC4AopssABBLABtCLS8sAAA8lZDgAESgb3sAVG4AGB4zGh1GAABbGGwAJTCYKbUAgKYAw7lxAB0cCCEAZWs1Dj8WAACbQ9EserBwHoVfGnEgCSY2DkASBBUAYoYAIy2sDVkAq54AncKbACSqy8leQUcwPzw/II5/AAAIjElEQVR4nO2c6V/bNhiAnThxIRwmEAw5COEqhHIUSjlCgBCgXKXsolsLXUdX1m1dd/3/H2bJl86ghN/iEN7nm2XHEg+SLMmvrGkAAAAAAAAAAAAAAAAAAAAAAAAAAAAAAAAAAAAAAAAAAAAAAACh86hj0Gc87MLcP8YjAfmwC3P/mAB9dwH01cvhLHEg1XfQ5FLdF55Mpokjmb4FY7nZBbsXHJmmdRQcSvTNR6PGafML1+r0vrN0XTcX/QSJvhHD9ndyHEIJW5nspKkjfZN+iljfnG3PxpgLo5Ati91wdYxZ9pKE+s4de7a/9flwStqCzKYt3cPadxOXRPpOoh5GdCGk0rYai7qpB5h7TqpI36kRDTCehlbi1mKS0ud2fwJ9L0l7UQOqn8MTncQ6w4m8voNoFCqfiCOL8pdFaaS+JL5qnWq666GWuLUoU81XR5M3Tt9TqulGX4Vc5FbikO7+0OSN1XdMd3wvwy5yS7FIN98jTt8HuuODeRvNGeXPnrwN0ProMctJ2MVtOdLM6IXWt0w33fOwS9tyzFKjF7P8Fanva9pew0tWzx4h2NThTjuxU/iD6WfiZPyLXuYWchotbx28oLu/b0h931JNd6ThPDLobkU2tRtnwl083NeFTySmuFM9+ARh/HGkJr3cHe7OygV9XCb9memuIPfvqOdGlF4t+PVGPcsEulsXmyrWNzjk5981wZyrU9+QegnV2crFty5eEwnk6MVMf+/n/vgHqvKRi33PV3dSMfUs69CXoAT00SdbQV8hHo/n4htrfsIipc8tI/pzRwl9xGQNuUvFYqk3ylmq68swBrqpsy2gbzMXx+RyG2tvnaR9i9Sn5SNuKQl9/mTtzeUYcmeTqijnqawvySmgOkBOX76mPr5fvTtXrj6nDpZwK35nkfq0Isp6UKP04cnam8sd1x1iTDlPVX3eO/pkR0+32wcXye6f0zfRQ4BP5qeCBP7Zc3cKcRK7DpZWiO7Pn7ihCVugz/hRe79biRHuYvW0XlV9jrKuAXww6Pgjuz9OHwU+2aFapsbYzMUZcvFC6SfLMgN9Wp8zyvD0GcbpTXWMUof1Xapmqqiv06lv3uEUfajdoq+3GfquOH24Dpb20zoy6OjTEnjIgPQZhnEydx7j3NXVehX1OQlBYJLTE04HF4SvryCwh3irze6XTcsiX5mP2u7W5+yZWlVoL5Z6rpipor4kU9vG2YdH6PpWRJUPUcCnX5TLxMWj68v4ibEqtqfeehX14VFLf3DcyXZ+oesTtl3cfrekv9mW2FNvvYr6+hl9j1pO30Zc6u9C9psdibxUamdbLde20ad9XpMa/Cz+RUVY+VKpsVXVrq+N9NkcSgxuCK++Ediz6526O63N9Nm8FhkUdn98x4fcKTZaj3bTh7igDOZyhS1R7/ecmqfVXe8c2lGf3YovthyDyN2m9LLtVdcgcnfdSEbtqQ9xsVWo6c5he8YeOVdn6myzPu2rT/tw87PK1H/v48fZ26+S0K763t9U7OlsaqzyS83LVq42cjl3caYR2lLfp5uqtxRg922VXcmLlZWrgveMQYszjRhsP32fZqr0Moo9Dq4Irrso5KgRjv2Uubqtp+RoM33XrDtHoKgP7OWXaOo32E76bHcp0TwstSq8/K14gfD2pzVB2+j7dXVH6M6mKvnJmniKbLfprc1DtVzbRp9k4RMhHRBvSRdpcorPkbbRJ1oAcJruLj4/P0pcvOfulpGtUEsWGXjaRt9vNReOX55GyeDbrDV5hgzyr5fc2ldSzLVLqK8D/73DQQJ+QZoJjp/heA3iTXkf/oU4fKg5j46q2N6OdrA8Ytg4cUBOcEnWMi1LP8tqv0u6P8kKIcsw1pBkk51XGYP+sbM2/5i4oshox7W4KBmfNkXfjHD5rvrHuq3OD6Oadv7lWbzfzbQmv/xZxwIhT7f4D3PaZmDHibjoIa5wAl78V29O7GG/JqYp+q45d7HqTO9fhvdKF+vLRCKo/mXd4APTnMRLC4xC1bbrxg5McydwX+dvvnFe60b4qIIh75dFprrSNGfcV2Xq3c01Gf+N9aEuBr0vzAaxG+gF3CZrUO2569Q9vu16diJJ/Cxwo33oHexOsFoR18gpx540cKU5+vzWi2ZpboweHQPp7ApMkPq8PW/2/DcwWFDIbcL9m8Udfr97bqjfu2xomLrAi/aKdHmXSitfk/R9clc+Y5Xd924SEf+N9BW9cmbJwEl3z5u2UnIN5q4UcvM/zNEjOtsZYWGjeriQq4Q0qyZN2uwpW2rskpjfkvHftj4/QHGA1Eds+dU+l9A6v9KY2dPXLT69xMjhqxYT8Cd7bmhN0zcTu6TWBg7oAOZBv6hd1K4Pd8+by0ppo6CS2XiNuocYKJJyRBFlVAhfrW97hLParJ3Q+ojC/k1uWtCtFw3cHOvL8w/dgD6/25NcNuFXwH421pkiHH3MnrV/CH3JL1TUuK64QEAykcj3SGYJPlP5ZCaZnxqWXrDUnU8k8t1LtW/T25/JZPql9fz/YYHZrPsvqU/j97wBJPNU1TNOmV1Fi3TzPbr9hg+LdXbPGrOnjdnyu3j7HR8Sc9yeNUYft+cNCDjm96yx+g6pD0ZY5dtu+ZA4oezh1QJWH7vnbb/2HR8Sp/SYBadx+pgtv/qTMEvcSgg/MMLrE3+w5MFzTttz96wJ9O3Ro5cv4RW5lfhAtl1/z5pAH7nnza59MHhxWYgGAr2PQ4r0ER8sgUcvwStv1Bx8WUmoT3NHL6YOD14KZ8GA+MCIWF8W67Mm90T3eMgc2w2Y/MCIWB8avZj0ih+AmR8xyA+MSPRpaUtvZL3vATBHfmBEpm8v3Xhs7gNCpg9QAvTdCdB3JwYiQx6grwGGA2q9IAMAAAAAAAAAAAAAAAAAAAAAAAAAAAAAAAAAAAAAAAAAAAAAAAAQ/wEkpuBQUDJuGgAAAABJRU5ErkJggg==;imageBorder=default;" parent="1" vertex="1">
          <mxGeometry x="410" y="528" width="100" height="50" as="geometry" />
        </mxCell>
      </root>
    </mxGraphModel>
  </diagram>
</mxfile>
